<?xml version="1.0" standalone="no"?><!DOCTYPE svg PUBLIC "-//W3C//DTD SVG 1.1//EN" "http://www.w3.org/Graphics/SVG/1.1/DTD/svg11.dtd"><svg t="1586869291373" class="icon" viewBox="0 0 1024 1024" version="1.1" xmlns="http://www.w3.org/2000/svg" p-id="4436" xmlns:xlink="http://www.w3.org/1999/xlink" width="28" height="28"><defs><style type="text/css"></style></defs><path d="M512 128c-211.456 0-384 172.544-384 384s172.544 384 384 384 384-173.056 384-384-173.056-384-384-384z m236.544 256l-294.4 294.4c-6.144 6.656-19.456 12.8-31.744 12.8h-6.144c-12.8 0-19.456-6.144-31.744-12.8l-121.856-95.744c-19.456-19.456-19.456-51.2-6.144-70.656 19.456-19.456 44.544-25.6 70.656-6.144l89.6 76.8 262.144-262.656c19.456-19.456 51.2-19.456 70.656 0 18.432 12.8 18.432 44.544-1.024 64z" fill="#e6e6e6" p-id="4437"></path></svg>