<?xml version="1.0" standalone="no"?><!DOCTYPE svg PUBLIC "-//W3C//DTD SVG 1.1//EN" "http://www.w3.org/Graphics/SVG/1.1/DTD/svg11.dtd"><svg t="1586853657736" class="icon" viewBox="0 0 1024 1024" version="1.1" xmlns="http://www.w3.org/2000/svg" p-id="47748" xmlns:xlink="http://www.w3.org/1999/xlink" width="20" height="20"><defs><style type="text/css"></style></defs><path d="M730.368 395.62971402h-316.96457101a25.6 25.6 0 0 1 0-51.2h316.96457101a25.6 25.6 0 1 1 0 51.2m0 140.17828598h-316.96457101a25.6 25.6 0 0 1 0-51.2h316.96457101a25.6 25.6 0 0 1 0 51.2m0 140.21485699h-316.96457101a25.6 25.6 0 0 1 0-51.19999998h316.96457101a25.6 25.6 0 1 1 0 51.2M319.232 399.28685699a29.25714299 29.25714299 0 1 1 0-58.51428598 29.25714299 29.25714299 0 0 1 0 58.514286m0 140.178286a29.25714299 29.25714299 0 1 1 0-58.51428602 29.25714299 29.25714299 0 0 1 0 58.514286m0 140.21485701a29.25714299 29.25714299 0 1 1 0-58.51428601 29.25714299 29.25714299 0 0 1 0 58.51428601M510.17142899 0.03657099C228.864 0.03657099 0 228.90057101 0 510.208c0 281.30742899 228.864 510.17142901 510.17142901 510.17142901 281.30742899 0 510.17142901-228.864 510.17142798-510.17142901 0-281.30742899-228.864-510.17142901-510.17142798-510.17142901" fill="#57d4ad" p-id="47749"></path></svg>