<?xml version="1.0" standalone="no"?><!DOCTYPE svg PUBLIC "-//W3C//DTD SVG 1.1//EN" "http://www.w3.org/Graphics/SVG/1.1/DTD/svg11.dtd"><svg t="1586877963913" class="icon" viewBox="0 0 1024 1024" version="1.1" xmlns="http://www.w3.org/2000/svg" p-id="2739" xmlns:xlink="http://www.w3.org/1999/xlink" width="20" height="20"><defs><style type="text/css"></style></defs><path d="M224 672c-17.673 0-32 14.327-32 32 0 17.673 14.327 32 32 32h416c17.673 0 32-14.327 32-32 0-17.673-14.327-32-32-32H224z m0-256c-17.673 0-32 14.327-32 32s14.327 32 32 32h416c17.673 0 32-14.327 32-32s-14.327-32-32-32H224z m-64-256h544c53.019 0 96 42.981 96 96v640c0 53.019-42.981 96-96 96H160c-53.019 0-96-42.981-96-96V256c0-53.019 42.981-96 96-96z m736 698.537V160c0-35.346-28.654-64-64-64H229.463C242.641 58.714 278.201 32 320 32h544c53.019 0 96 42.981 96 96v640c0 41.799-26.714 77.359-64 90.537z" p-id="2740" fill="#ffffff"></path></svg>