<?xml version="1.0" standalone="no"?><!DOCTYPE svg PUBLIC "-//W3C//DTD SVG 1.1//EN" "http://www.w3.org/Graphics/SVG/1.1/DTD/svg11.dtd"><svg t="1587442065660" class="icon" viewBox="0 0 1024 1024" version="1.1" xmlns="http://www.w3.org/2000/svg" p-id="1354" xmlns:xlink="http://www.w3.org/1999/xlink" width="10" height="10"><defs><style type="text/css"></style></defs><path d="M666.544 112H357.456C221.896 112 112 221.892 112 357.456v309.088C112 802.104 221.892 912 357.456 912h309.088c135.56 0 245.456-109.892 245.456-245.456V357.456C912 221.896 802.108 112 666.544 112z" fill="#FFFFFF" p-id="1355"></path><path d="M644.924 167.96H379.076c-116.596 0-211.112 94.52-211.112 211.116v265.848c0 116.596 94.52 211.112 211.112 211.112h265.848c116.596 0 211.112-94.52 211.112-211.112V379.076c0-116.596-94.52-211.112-211.112-211.112z" fill="#BEECFC" p-id="1356"></path><path d="M625.984 216.98H398.016c-99.984 0-181.036 81.052-181.036 181.036v227.968c0 99.984 81.052 181.036 181.036 181.036h227.968c99.984 0 181.036-81.052 181.036-181.036V398.016c0-99.984-81.052-181.036-181.036-181.036z" fill="#A3DFEF" p-id="1357"></path><path d="M512 363.276l-309.568 194.44s-25.412 80.272 5.864 156.276c9.292 22.584 14.084 48.892 16.26 74.716 38.544 41.4 93.492 67.332 154.52 67.332h265.848c61.028 0 115.976-25.928 154.52-67.332 2.176-25.824 6.968-52.132 16.264-74.72 31.272-76 5.86-156.272 5.86-156.272L512 363.28z" fill="#101820" p-id="1358"></path><path d="M663.08 617.184c-17.44-1.612-55.072-7.724-69.04-30.764-18.448-30.428-52.912-51.32-82.04-51.32s-63.592 20.892-82.04 51.32c-13.968 23.04-51.6 29.152-69.04 30.764a6.588 6.588 0 0 0-5.48 9.152c95.96 223.372 156.56 129.472 156.56 129.472s60.6 93.9 156.56-129.472a6.588 6.588 0 0 0-5.48-9.152z" fill="#FFFFFF" p-id="1359"></path><path d="M355.44 626.336c95.96 223.372 156.56 129.472 156.56 129.472s60.6 93.9 156.56-129.472a6.588 6.588 0 0 0-5.48-9.152s-30.972 82.532-79.748 104.072c-48.772 21.544-71.332 0-71.332 0s-22.56 21.544-71.332 0c-48.776-21.54-79.752-104.072-79.752-104.072a6.588 6.588 0 0 0-5.476 9.152z" fill="#E6E7E8" p-id="1360"></path><path d="M543.452 701.756c-8.936-13.224-31.452-13.408-31.452-13.408s-22.516 0.184-31.452 13.408c-8.936 13.224-21.44 10.72-12.864 24.3 8.576 13.584 21.44 11.44 27.876 15.728 6.432 4.288 9.648 5.72 16.44 5.72 6.792 0 10.008-1.432 16.44-5.72 6.432-4.288 19.3-2.144 27.88-15.728 8.576-13.58-3.932-11.08-12.868-24.3z" fill="#101820" p-id="1361"></path><path d="M723.368 411.248c-31.776-22.088-62.548-46.192-98.016-64.18 7.656-9.94 18.648-20.192 31.292-30.132-42.596-37.616-93.092-26.412-107.932-21.016-16.316 5.932-27.404 6.188-36.712 6.188-9.308 0-20.4-0.256-36.712-6.188-14.84-5.396-65.336-16.6-107.932 21.016 12.644 9.94 23.636 20.192 31.292 30.132-35.468 17.988-66.24 42.092-98.016 64.18-60.816 42.272-96.416 155.744-80.1 221.012 11.12 44.464 27.996 61.004 37.628 67.036 2.504 1.18 4.98 2.296 7.432 3.352 45.436 19.604 80.66 18.992 86.212 33.08 14.46 36.704 88.88 25.048 88.884 25.048-23.5-18.492-52.136-57.552-84.92-133.68-1.912-4.44 1-9.512 5.82-9.976 17.72-1.704 54.58-7.952 68.372-30.7 18.448-30.428 52.912-51.32 82.04-51.32s63.592 20.892 82.04 51.32c13.792 22.748 50.648 28.996 68.372 30.7 4.82 0.464 7.732 5.532 5.816 9.98-32.78 76.124-61.416 115.184-84.92 133.676 0.008 0 74.428 11.656 88.888-25.048 5.552-14.088 40.776-13.476 86.212-33.08a248.94 248.94 0 0 0 7.432-3.352c9.632-6.032 26.512-22.572 37.628-67.04 16.32-65.264-19.28-178.736-80.1-221.008z" fill="#FF7F4D" p-id="1362"></path><path d="M285.056 664.896c-43.016-37.82-26.144-161.5-14.188-188.2s4.668-42.46 4.668-42.46l-0.04-0.016c-45.028 51.728-68.876 142.392-54.964 198.04 11.12 44.464 27.996 61.004 37.628 67.036 2.504 1.18 4.98 2.296 7.432 3.352 11.216 4.84 21.804 8.44 31.484 11.344 3.94-18.58 2.168-36.624-12.02-49.096zM738.948 664.896c43.012-37.82 26.14-161.5 14.184-188.2s-4.664-42.46-4.664-42.46l0.04-0.016c45.024 51.728 68.872 142.392 54.96 198.04-11.116 44.464-27.992 61.004-37.628 67.036-2.504 1.18-4.98 2.296-7.428 3.352-11.22 4.84-21.808 8.44-31.488 11.344-3.94-18.58-2.164-36.624 12.024-49.096z" fill="#D85E2E" p-id="1363"></path><path d="M347.912 700.304c-7.576-20.704-42.2-77.168 1.844-122.776 4.48-4.636 0.196-12.248-6.088-10.816-32.244 7.352-87.488 34.676-78.08 135.936 45.44 19.604 80.664 18.992 86.216 33.08 0 0 4.448-12.616-3.892-35.424zM246.676 250.864c-29.904-4.448-34.8 75.836-30.1 111.436s14.836 59.332-0.616 93.444c-15.452 34.12-42.752 104.936 3.16 108.28h0.012c8.64-58.492 38.852-123.136 81.5-152.776 2.988-2.08 5.964-4.184 8.944-6.292l-3.384 2.4c22.62-11.308 55.828 9.868 90.344-12.424 64.164-41.44-119.96-139.616-149.86-144.068zM676.088 700.304c7.576-20.704 42.2-77.168-1.844-122.776-4.48-4.636-0.196-12.248 6.088-10.816 32.244 7.352 87.488 34.676 78.08 135.936-45.44 19.604-80.664 18.992-86.216 33.08 0 0-4.448-12.616 3.892-35.424z" fill="#FFFFFF" p-id="1364"></path><path d="M300.632 411.248c18.124-12.6 35.94-25.844 54.472-38.248-15.016-13.984-53.54-48.84-69.492-53.72-16.236-4.96-18.208 59.54-10.08 114.96 7.776-8.932 16.144-16.768 25.1-22.992z" fill="#101820" p-id="1365"></path><path d="M428.188 480.312c-23.264 0-34.944 10.292-34.388 13.908 0.536 3.48 35.092 1.296 21.26 19.016-7.548-1.468-15.392-0.736-22.6 3.232-30.828 16.964-23.692 56.736-16.46 78.432 5.44 16.316 14.424 16.536 18.544 15.64 0.716-0.228 1.432-0.44 2.144-0.684a2.948 2.948 0 0 1 0.044-0.024h0.028c13.328-4.612 26.22-11.896 33.2-23.412a109.748 109.748 0 0 1 16.912-21.24l0.032-0.04c6.388-8.172 5.688-18.372 0.788-27.612 3.588-1.952 8.128-6.088 11.464-14.94 6.4-16.964-7.704-42.276-30.968-42.276z" fill="#FFFFFF" p-id="1366"></path><path d="M408.632 557.72m-22.616 0a22.616 22.616 0 1 0 45.232 0 22.616 22.616 0 1 0-45.232 0Z" fill="#101820" p-id="1367"></path><path d="M396.52 707.408l-0.192-0.308c-1.464-2.368-2.948-4.864-4.436-7.384-0.36-0.616-0.72-1.188-1.08-1.812-1.332-2.28-2.68-4.688-4.024-7.096-0.532-0.948-1.056-1.84-1.588-2.808-1.216-2.208-2.452-4.548-3.684-6.86-0.68-1.28-1.352-2.492-2.036-3.804-1.124-2.156-2.268-4.44-3.408-6.688-0.8-1.588-1.6-3.112-2.412-4.748-1.056-2.124-2.124-4.38-3.188-6.584-0.912-1.884-1.816-3.712-2.732-5.656-1.008-2.128-2.028-4.384-3.04-6.584-0.992-2.152-1.98-4.244-2.98-6.468-0.988-2.2-1.992-4.524-2.992-6.792-0.984-2.24-1.96-4.408-2.96-6.72l-0.012-0.044c-0.104-0.248-0.208-0.472-0.316-0.72a6.588 6.588 0 0 1 5.48-9.148c0.628-0.06 1.336-0.136 2.016-0.208 0.592-0.06 1.172-0.12 1.8-0.192 0.632-0.072 1.312-0.16 1.98-0.24l1.9-0.244c0.76-0.104 1.564-0.228 2.36-0.344 0.608-0.092 1.208-0.18 1.836-0.28 0.9-0.144 1.84-0.312 2.772-0.48 0.564-0.1 1.12-0.192 1.696-0.3 1.028-0.192 2.084-0.412 3.14-0.636 0.52-0.104 1.024-0.2 1.544-0.32 1.148-0.248 2.312-0.532 3.48-0.82 0.452-0.108 0.9-0.208 1.356-0.324 1.244-0.32 2.5-0.672 3.76-1.032 0.388-0.112 0.772-0.212 1.16-0.328 0.924-0.276 1.848-0.58 2.772-0.884-4.144 0.88-13.076 0.6-18.492-15.652-2.528-7.584-5.004-17.384-5.892-27.636l-0.04-0.008s-13.008 1.796-19.836 9.7c-0.084 0.1-0.216 0.228-0.308 0.332-0.068 0.08-0.092 0.164-0.168 0.24-44.044 45.608-9.42 102.072-1.844 122.776 8.34 22.808 3.892 35.424 3.892 35.424 14.416 36.584 88.376 25.124 88.864 25.048-13.16-10.36-27.94-27.2-44.148-53.368z" fill="#D85E2E" p-id="1368"></path><path d="M395.58 610.208l-1.036 0.336c-4.12 0.892-13.104 0.672-18.544-15.644-5.208-15.628-10.288-40.6-1.248-59.708l-0.048-0.088s-14.372 19.28-15.48 38.564c-0.748 12.88 2.904 30.532 7.756 42.84 8.08-1.02 18.4-2.896 28.6-6.3z" fill="#B74421" p-id="1369"></path><path d="M408.632 598.088c-17.752 0-32.796-11.476-38.2-27.4 1.092 8.996 3.32 17.476 5.568 24.212 5.44 16.316 14.424 16.536 18.544 15.64 0.716-0.228 1.432-0.44 2.144-0.684a2.948 2.948 0 0 1 0.044-0.024h0.028c9.272-3.208 18.284-7.756 25.292-14.076-4.204 1.484-8.708 2.332-13.42 2.332z" fill="#FFA07B" p-id="1370"></path><path d="M459.16 522.588c-3.34 8.852-7.88 12.988-11.468 14.94 4.9 9.24 5.6 19.44-0.788 27.612l-0.032 0.04a115.912 115.912 0 0 1 17.824-14.324c1-22.728-5.04-44.932-5.04-44.932l-0.012 0.008c1.476 5.7 1.44 11.552-0.488 16.656z" fill="#B74421" p-id="1371"></path><path d="M595.812 480.312c23.264 0 34.944 10.292 34.388 13.908-0.536 3.48-35.092 1.296-21.26 19.016 7.548-1.468 15.392-0.736 22.6 3.232 30.828 16.964 23.692 56.736 16.46 78.432-5.44 16.316-14.424 16.536-18.544 15.64-0.716-0.228-1.432-0.44-2.144-0.684a3.036 3.036 0 0 0-0.044-0.024h-0.028c-13.328-4.612-26.22-11.896-33.2-23.412a109.744 109.744 0 0 0-16.912-21.24l-0.032-0.04c-6.388-8.172-5.688-18.372-0.788-27.612-3.588-1.952-8.128-6.088-11.464-14.94-6.4-16.964 7.704-42.276 30.968-42.276z" fill="#FFFFFF" p-id="1372"></path><path d="M615.368 557.72m-22.616 0a22.616 22.616 0 1 0 45.232 0 22.616 22.616 0 1 0-45.232 0Z" fill="#101820" p-id="1373"></path><path d="M627.48 707.408l0.192-0.308c1.464-2.368 2.948-4.864 4.436-7.384 0.36-0.616 0.72-1.188 1.08-1.812 1.332-2.28 2.68-4.688 4.024-7.096 0.532-0.948 1.056-1.84 1.588-2.808 1.216-2.208 2.452-4.548 3.684-6.86 0.68-1.28 1.352-2.492 2.036-3.804 1.124-2.156 2.268-4.44 3.408-6.688 0.8-1.588 1.6-3.112 2.412-4.748 1.056-2.124 2.124-4.38 3.188-6.584 0.912-1.884 1.816-3.712 2.732-5.656 1.008-2.128 2.028-4.384 3.04-6.584 0.992-2.152 1.98-4.244 2.98-6.468 0.988-2.2 1.992-4.524 2.992-6.792 0.984-2.24 1.96-4.408 2.96-6.72l0.012-0.044c0.104-0.248 0.208-0.472 0.316-0.72a6.588 6.588 0 0 0-5.48-9.148c-0.628-0.06-1.336-0.136-2.016-0.208-0.592-0.06-1.172-0.12-1.8-0.192-0.632-0.072-1.312-0.16-1.98-0.24l-1.9-0.244c-0.76-0.104-1.564-0.228-2.36-0.344-0.608-0.092-1.208-0.18-1.836-0.28-0.9-0.144-1.84-0.312-2.772-0.48-0.564-0.1-1.12-0.192-1.696-0.3a164.56 164.56 0 0 1-3.14-0.636c-0.52-0.104-1.024-0.2-1.544-0.32a148.868 148.868 0 0 1-3.48-0.82c-0.452-0.108-0.9-0.208-1.356-0.324-1.244-0.32-2.5-0.672-3.76-1.032-0.388-0.112-0.772-0.212-1.16-0.328-0.924-0.276-1.848-0.58-2.772-0.884 4.144 0.88 13.076 0.6 18.492-15.652 2.528-7.584 5.004-17.384 5.892-27.636l0.04-0.008s13.008 1.796 19.836 9.7c0.084 0.1 0.216 0.228 0.308 0.332 0.068 0.08 0.092 0.164 0.168 0.24 44.044 45.608 9.42 102.072 1.844 122.776-8.34 22.808-3.892 35.424-3.892 35.424-14.416 36.584-88.376 25.124-88.864 25.048 13.16-10.36 27.94-27.2 44.148-53.368z" fill="#D85E2E" p-id="1374"></path><path d="M628.42 610.208l1.036 0.336c4.12 0.892 13.104 0.672 18.544-15.644 5.208-15.628 10.288-40.6 1.248-59.708l0.048-0.088s14.372 19.28 15.48 38.564c0.748 12.88-2.904 30.532-7.756 42.84-8.08-1.02-18.4-2.896-28.6-6.3z" fill="#B74421" p-id="1375"></path><path d="M615.368 598.088c17.752 0 32.796-11.476 38.2-27.4-1.092 8.996-3.32 17.476-5.568 24.212-5.44 16.316-14.424 16.536-18.544 15.64-0.716-0.228-1.432-0.44-2.144-0.684a3.036 3.036 0 0 0-0.044-0.024h-0.028c-9.272-3.208-18.284-7.756-25.292-14.076 4.204 1.484 8.708 2.332 13.42 2.332z" fill="#FFA07B" p-id="1376"></path><path d="M564.84 522.588c3.34 8.852 7.88 12.988 11.468 14.94-4.9 9.24-5.6 19.44 0.788 27.612l0.032 0.04a115.908 115.908 0 0 0-17.824-14.324c-1-22.728 5.04-44.932 5.04-44.932l0.012 0.008c-1.476 5.7-1.44 11.552 0.488 16.656z" fill="#B74421" p-id="1377"></path><path d="M459.644 505.932l0.012-0.008s6.04 22.204 5.04 44.932a106.388 106.388 0 0 1 18.06-9.54c-5.48-60.4-47.512-60.18-47.512-60.18l0.02 0.052c12.56 2.964 21.472 13.52 24.38 24.744zM564.356 505.932l-0.012-0.008s-6.04 22.204-5.04 44.932a106.384 106.384 0 0 0-18.06-9.54c5.48-60.4 47.512-60.18 47.512-60.18l-0.02 0.052c-12.56 2.964-21.472 13.52-24.38 24.744z" fill="#D85E2E" p-id="1378"></path><path d="M459.16 522.588c3.496-9.28 0.832-21.032-6.08-29.8l0.024 0.052c12.3 25.32-12.44 36.884-12.44 36.884 5.428 2.784 7.028 7.804 7.028 7.804 3.588-1.952 8.128-6.088 11.464-14.94zM564.836 522.588c-3.5-9.28-0.836-21.032 6.076-29.8l-0.024 0.052c-12.3 25.32 12.44 36.884 12.44 36.884-5.428 2.784-7.024 7.804-7.024 7.804-3.588-1.952-8.128-6.088-11.468-14.94z" fill="#D1D3D4" p-id="1379"></path><path d="M407.056 535.26c-11.74 0.824-21.04 10.508-21.04 22.456h21.04v-22.456zM613.792 535.26c-11.74 0.824-21.04 10.508-21.04 22.456h21.04v-22.456z" fill="#932E16" p-id="1380"></path><path d="M777.324 250.864c29.904-4.448 34.8 75.836 30.1 111.436s-14.836 59.332 0.616 93.444c15.452 34.12 42.752 104.936-3.16 108.28h-0.012c-8.64-58.492-38.852-123.136-81.5-152.776-2.988-2.08-5.964-4.184-8.944-6.292l3.384 2.4c-22.62-11.308-55.828 9.868-90.344-12.424-64.164-41.44 119.96-139.616 149.86-144.068z" fill="#FFFFFF" p-id="1381"></path><path d="M723.368 411.248c-18.124-12.6-35.94-25.844-54.472-38.248 15.016-13.984 53.54-48.84 69.492-53.72 16.236-4.96 18.208 59.54 10.08 114.96-7.776-8.932-16.144-16.768-25.1-22.992z" fill="#101820" p-id="1382"></path><path d="M440.668 721.256c10.988 4.856 20.576 7.44 28.948 8.66-3.292-0.988-12.708-6.412-18.936-36.284-7.652-36.712 1.568-85.612-28.628-97.876-17.088 15.416-46.34 20.06-61.136 21.428 0 0 30.976 82.532 79.752 104.072zM583.332 721.256c-10.988 4.856-20.576 7.44-28.948 8.66 3.292-0.988 12.708-6.412 18.936-36.284 7.652-36.712-1.568-85.612 28.628-97.876 17.088 15.416 46.34 20.06 61.136 21.428 0 0-30.976 82.532-79.752 104.072z" fill="#F4F4F4" p-id="1383"></path><path d="M512 535.104c9.432 0 19.416 2.22 29.24 6.212-9.692-11.028-21.012-15.112-29.24-15.112s-19.548 4.08-29.24 15.112c9.824-3.992 19.808-6.212 29.24-6.212z" fill="#FFC1AE" p-id="1384"></path><path d="M583.332 760.776c0.24-0.184 0.488-0.412 0.724-0.6-45.604 36.56-72.056-4.368-72.056-4.368s-26.452 40.932-72.064 4.36c0.24 0.192 0.492 0.42 0.732 0.608-0.056 0.012-1.092 0.168-2.84 0.38 11.144 8.224 10.992 19.776 18.548 31.204 10.848 16.412 29.48 23.64 42.552 21.416s13.072-5.004 13.072-5.004 0 2.78 13.072 5.004c13.072 2.228 31.704-5.004 42.552-21.416 7.556-11.428 7.404-22.98 18.548-31.2a106.5 106.5 0 0 1-2.84-0.384z" fill="#D1D3D4" p-id="1385"></path><path d="M456.376 792.36c-7.556-11.428-7.404-22.98-18.548-31.2-13.668 1.676-73.24 7.008-86.024-25.432-3.404-8.64-17.996-11.76-39.22-17.392 0 0 22.16 8.344 36.252 44.2 14.092 35.852 102.72 51.636 143.14 51.636v-0.164c-12.132-0.76-26.56-7.964-35.6-21.648zM567.624 792.36c7.556-11.428 7.404-22.98 18.548-31.2 13.668 1.676 73.24 7.008 86.024-25.432 3.404-8.64 17.996-11.76 39.22-17.392 0 0-22.16 8.344-36.252 44.2-14.092 35.852-102.72 51.636-143.14 51.636v-0.164c12.132-0.76 26.56-7.964 35.6-21.648z" fill="#B74421" p-id="1386"></path><path d="M508.94 759.708c2.016-2.288 3.06-3.9 3.06-3.9s1.044 1.612 3.06 3.9v-20.188h-6.12v20.188z" fill="#101820" p-id="1387"></path><path d="M480.296 781.7c26.328-0.928 31.704-7.6 31.704-7.6s5.376 6.672 31.704 7.6c26.332 0.928 39.628-20.92 39.628-20.92l-0.012-0.048c-45.148 35.524-71.32-4.92-71.32-4.92s-26.168 40.444-71.32 4.92l-0.012 0.044s13.296 21.852 39.628 20.924zM512 796.532s-4.928 13.32-19.624 17.512c2.28 0.116 4.496 0.08 6.552-0.268 13.072-2.224 13.072-5.004 13.072-5.004s0 2.78 13.072 5.004c2.056 0.352 4.276 0.384 6.552 0.268-14.696-4.192-19.624-17.512-19.624-17.512z" fill="#101820" p-id="1388"></path><path d="M495.5 701.416a16.5 6.676 0 1 0 33 0 16.5 6.676 0 1 0-33 0Z" fill="#6D6E71" p-id="1389"></path><path d="M475.288 295.92c-14.84-5.396-65.336-16.6-107.932 21.016 12.644 9.94 23.636 20.192 31.292 30.132 0.808-0.412 0.84-0.368 0.032 0.04 14.08 18.312 16.852 35.556-2.144 47.824-18.04 11.652-35.728 11.424-51.732 10.168 0 0 69.112 13.748 80.24-17.772 8.192-23.22-3.32-40.468-9.956-47.96h0.008l-0.02-0.012s-41.24-52.44 64.972-41.82l0.004-0.02a116.404 116.404 0 0 1-4.76-1.596zM679.196 405.1c-16.004 1.256-33.688 1.484-51.732-10.168-19-12.268-16.228-29.512-2.144-47.82-0.808-0.412-0.776-0.456 0.032-0.044 7.656-9.94 18.648-20.192 31.292-30.132-42.596-37.616-93.092-26.412-107.932-21.016-1.652 0.6-3.216 1.108-4.764 1.596l0.004 0.02c106.212-10.62 64.972 41.82 64.972 41.82l-0.02 0.008 0.008 0.004c-6.64 7.492-18.148 24.74-9.952 47.96 11.12 31.52 80.24 17.776 80.24 17.776h-0.004z" fill="#D85E2E" p-id="1390"></path><path d="M279.476 708.14c0.816 0.3 1.66 0.632 2.472 0.92 2.36 0.84 4.668 1.612 6.948 2.36 0.256 0.08 0.52 0.18 0.776 0.264 2.52 0.816 4.992 1.584 7.404 2.308 3.94-18.58 2.168-36.624-12.02-49.096-6.784-5.964-12.076-14.076-16.132-23.596-4.072 16.628-5.612 36.8-3.332 61.348 2.816 1.216 5.592 2.352 8.324 3.42 1.884 0.736 3.72 1.4 5.56 2.072zM738.948 664.896c-14.188 12.472-15.964 30.52-12.024 49.096l0.424-0.132c2.276-0.684 4.592-1.4 6.96-2.172 0.488-0.16 1-0.34 1.488-0.504 2.056-0.68 4.12-1.368 6.24-2.12 1.232-0.44 2.508-0.932 3.76-1.4 1.424-0.528 2.824-1.024 4.272-1.588 2.736-1.072 5.52-2.208 8.34-3.428 2.28-24.548 0.74-44.72-3.328-61.344-4.06 9.52-9.348 17.628-16.132 23.592z" fill="#E6E7E8" p-id="1391"></path></svg>