<?xml version="1.0" standalone="no"?><!DOCTYPE svg PUBLIC "-//W3C//DTD SVG 1.1//EN" "http://www.w3.org/Graphics/SVG/1.1/DTD/svg11.dtd"><svg t="1586928817303" class="icon" viewBox="0 0 1180 1024" version="1.1" xmlns="http://www.w3.org/2000/svg" p-id="16105" xmlns:xlink="http://www.w3.org/1999/xlink" width="11.5234375" height="10"><defs><style type="text/css"></style></defs><path d="M290.773 337.693h641.04v-55.797a56.728 56.728 0 0 0-56.982-56.981H532.94v-51.44a56.992 56.992 0 0 0-56.98-56.982H191.051a56.728 56.728 0 0 0-56.981 56.981v677.447l99.72-455.852c0-32.051 25.325-57.376 56.982-57.376z m655.282 512.833a57.002 57.002 0 0 1-56.981 56.982H176.81l99.72-470.095c0-31.262 25.325-56.982 56.586-56.982h655.678a57.002 57.002 0 0 1 56.981 56.982z m0 0" fill="#909399" p-id="16106"></path></svg>