<?xml version="1.0" standalone="no"?><!DOCTYPE svg PUBLIC "-//W3C//DTD SVG 1.1//EN" "http://www.w3.org/Graphics/SVG/1.1/DTD/svg11.dtd"><svg t="1586836402765" class="icon" viewBox="0 0 1024 1024" version="1.1" xmlns="http://www.w3.org/2000/svg" p-id="32950" xmlns:xlink="http://www.w3.org/1999/xlink" width="20" height="20"><defs><style type="text/css"></style></defs><path d="M56.888889 0h910.222222v1024l-15.36-5.688889L512 853.333333l-455.111111 170.666667V0z" fill="#57d4ad" p-id="32951"></path><path d="M308.906667 551.822222a654.791111 654.791111 0 0 1-74.524445 180.337778l-40.96-26.168889a533.048889 533.048889 0 0 0 70.542222-163.84zM284.444444 341.333333a531.342222 531.342222 0 0 0-36.408888-77.368889l43.804444-15.928888A540.444444 540.444444 0 0 1 327.68 341.333333h75.093333a816.355556 816.355556 0 0 0 35.271111-96.142222l44.373334 14.791111A576.853333 576.853333 0 0 1 447.146667 341.333333h76.8v44.373334H392.533333v74.524444H512v44.942222H392.533333v192.853334q0 56.888889-56.888889 56.888889h-39.253333L284.444444 707.697778a170.666667 170.666667 0 0 0 30.72 3.413333c17.635556 0 26.737778-7.964444 26.737778-24.462222V505.173333H216.177778v-44.942222H341.333333V384H205.368889V341.333333z m56.888889-156.444444a408.462222 408.462222 0 0 0-31.288889-56.888889l50.631112-7.964444c10.24 20.48 19.911111 43.235556 29.582222 67.697777h129.706666V227.555556H212.195556v-42.666667z m164.977778 473.884444l-40.96 15.928889a940.373333 940.373333 0 0 0-47.786667-126.293333l40.96-10.808889a921.6 921.6 0 0 1 48.924445 121.173333z m297.528889-482.986666a650.24 650.24 0 0 1-199.68 41.528889V341.333333h220.16v47.217778h-69.404444v364.088889h-48.355556v-364.088889H605.297778v81.351111a504.035556 504.035556 0 0 1-78.506667 280.462222l-34.702222-36.977777A455.111111 455.111111 0 0 0 557.511111 469.902222V178.062222a581.404444 581.404444 0 0 0 223.004445-45.511111z" fill="#ffffff" p-id="32952" data-spm-anchor-id="a313x.7781069.0.i26" class=""></path></svg>