<?xml version="1.0" standalone="no"?><!DOCTYPE svg PUBLIC "-//W3C//DTD SVG 1.1//EN" "http://www.w3.org/Graphics/SVG/1.1/DTD/svg11.dtd"><svg t="1587283356081" class="icon" viewBox="0 0 1024 1024" version="1.1" xmlns="http://www.w3.org/2000/svg" p-id="25377" xmlns:xlink="http://www.w3.org/1999/xlink" width="18" height="18"><defs><style type="text/css"></style></defs><path d="M836 684h-704c-16 0-30.4-6.4-40-18.4-9.6-12-13.6-28-11.2-44l39.2-224c5.6-32 36-57.6 68-57.6h704c16 0 30.4 6.4 40 18.4 9.6 12 13.6 28 11.2 44l-39.2 224c-5.6 32-36 57.6-68 57.6z m-648-320c-20.8 0-40.8 17.6-44.8 38.4l-39.2 224c-1.6 9.6 0 18.4 5.6 24 4.8 6.4 12.8 9.6 22.4 9.6h704c20.8 0 40.8-17.6 44.8-38.4l39.2-224c1.6-9.6 0-18.4-5.6-24-4.8-6.4-12.8-9.6-22.4-9.6h-704z" fill="#ffffff" p-id="25378"></path><path d="M407.2 454.4c0 1.6-1.6 4-3.2 4.8-1.6 1.6-3.2 2.4-5.6 2.4H298.4c-0.8 0-0.8 0-1.6 0.8-4 5.6-8 12-12.8 18.4-0.8 0.8-0.8 0.8 0 0.8h87.2c1.6 0 3.2 0.8 4.8 2.4 0.8 1.6 1.6 3.2 0.8 4.8L360 582.4c-0.8 5.6-2.4 9.6-4 12s-4.8 4.8-8 6.4c-4.8 1.6-14.4 3.2-28.8 3.2-1.6 0-4-0.8-4.8-1.6s-2.4-3.2-2.4-4.8c0-1.6-0.8-3.2-0.8-4.8 0-1.6 0-3.2 1.6-4 0.8-1.6 2.4-1.6 4-1.6h20c1.6 0 3.2 0 4-0.8 0.8-0.8 1.6-1.6 1.6-3.2l3.2-16.8c0-0.8 0-0.8-0.8-0.8h-77.6c-0.8 0-0.8 0-0.8 0.8l-5.6 31.2c0 1.6-1.6 4-3.2 4.8-1.6 1.6-3.2 2.4-5.6 2.4h-4.8c-1.6 0-3.2-0.8-4.8-2.4-0.8-1.6-1.6-3.2-0.8-4.8L256.8 512H256c-8.8 8.8-18.4 16.8-28 23.2-1.6 0.8-4 1.6-5.6 1.6-1.6 0-3.2-0.8-4-2.4-0.8-1.6-1.6-2.4-2.4-4-0.8-0.8-1.6-2.4-0.8-4 0-2.4 1.6-4 3.2-4.8 20.8-13.6 40-33.6 57.6-59.2v-0.8h-40c-1.6 0-3.2-0.8-4.8-2.4-0.8-1.6-1.6-3.2-0.8-4.8l0.8-3.2c0-1.6 1.6-3.2 3.2-4.8 1.6-1.6 3.2-2.4 5.6-2.4h48c0.8 0 0.8 0 1.6-0.8 3.2-5.6 6.4-12 9.6-17.6 0.8-1.6 2.4-3.2 4-4 0.8-0.8 2.4-0.8 4-0.8h1.6l5.6 0.8c1.6 0.8 3.2 1.6 3.2 3.2 0.8 1.6 0.8 3.2 0 4.8-3.2 5.6-4.8 9.6-7.2 13.6 0 0.8 0 0.8 0.8 0.8h92.8c1.6 0 3.2 0.8 4.8 2.4 0.8 1.6 1.6 3.2 1.6 4.8l-3.2 3.2z m-53.6 60.8c0.8 0 0.8 0 0.8-0.8l2.4-16c0-0.8 0-0.8-0.8-0.8h-77.6c-0.8 0-0.8 0-0.8 0.8l-2.4 16c0 0.8 0 0.8 0.8 0.8h77.6z m-84.8 32.8c0 0.8 0 0.8 0.8 0.8h77.6c0.8 0 0.8 0 0.8-0.8l2.4-16c0-0.8 0-0.8-0.8-0.8H272c-0.8 0-0.8 0-0.8 0.8l-2.4 16zM581.6 532.8c0 1.6-1.6 3.2-3.2 4.8-1.6 1.6-3.2 2.4-5.6 2.4h-58.4c-0.8 0-0.8 0-1.6 0.8-4.8 12-12 21.6-21.6 30.4-0.8 0-0.8 0.8 0 0.8 10.4 4 23.2 7.2 38.4 9.6 15.2 1.6 32.8 3.2 54.4 3.2 1.6 0 2.4 0.8 3.2 1.6v2.4c0 0.8 0 1.6-0.8 1.6-1.6 1.6-2.4 4-3.2 5.6-0.8 1.6-2.4 3.2-4 4.8s-4 1.6-5.6 1.6c-23.2-0.8-42.4-2.4-58.4-5.6s-29.6-7.2-40.8-12.8h-1.6c-13.6 7.2-30.4 13.6-52 18.4h-2.4c-1.6 0-2.4 0-4-0.8s-3.2-2.4-4-4l-2.4-4.8c-0.8-0.8-0.8-1.6-0.8-2.4 0 0 0-0.8 0.8-1.6 0.8-1.6 1.6-2.4 3.2-2.4 17.6-3.2 32.8-8 44.8-12.8v-0.8-0.8c-5.6-5.6-11.2-12-15.2-20-0.8-1.6-0.8-3.2 0-4.8 0.8-1.6 2.4-3.2 4-3.2l4-1.6c2.4-0.8 4-0.8 5.6 0 1.6 0.8 3.2 1.6 4 3.2 4 6.4 8.8 11.2 14.4 16h1.6c7.2-5.6 13.6-12.8 17.6-21.6 0-0.8 0-0.8-0.8-0.8h-50.4c-1.6 0-3.2-0.8-4.8-2.4-0.8-1.6-1.6-3.2-1.6-4.8l12-65.6c0-1.6 1.6-3.2 3.2-4.8 1.6-1.6 3.2-2.4 5.6-2.4h53.6c0.8 0 0.8 0 0.8-0.8l2.4-12.8c0-0.8 0-0.8-0.8-0.8H440c-1.6 0-3.2-0.8-4.8-2.4-0.8-1.6-1.6-3.2-0.8-4.8l0.8-3.2c0-1.6 1.6-4 3.2-4.8s3.2-2.4 5.6-2.4h161.6c1.6 0 3.2 0.8 4.8 2.4s1.6 3.2 0.8 4.8l-0.8 3.2c0 1.6-1.6 3.2-3.2 4.8-1.6 1.6-3.2 2.4-5.6 2.4h-68.8c-0.8 0-0.8 0-0.8 0.8l-2.4 12.8c0 0.8 0 0.8 0.8 0.8h56c1.6 0 3.2 0.8 4.8 2.4 0.8 1.6 1.6 3.2 1.6 4.8l-11.2 66.4z m-116-57.6c-0.8 0-0.8 0-0.8 0.8l-2.4 15.2c0 0.8 0 0.8 0.8 0.8h41.6c0.8 0 0.8 0 0.8-0.8l2.4-15.2c0-0.8 0-0.8-0.8-0.8h-41.6z m-8.8 48.8s0 0.8 0 0l42.4 0.8c0.8 0 0.8 0 0.8-0.8 0.8-1.6 1.6-4.8 2.4-8.8l0.8-6.4c0-0.8 0-0.8-0.8-0.8h-41.6c-0.8 0-0.8 0-0.8 0.8l-3.2 15.2z m107.2 0.8c0.8 0 0.8 0 0.8-0.8l2.4-15.2c0-0.8 0-0.8-0.8-0.8h-43.2c-0.8 0-0.8 0-0.8 0.8l-0.8 6.4c-0.8 4-1.6 7.2-1.6 8.8 0 0.8 0 0.8 0.8 0.8h43.2z m9.6-48.8c0-0.8 0-0.8-0.8-0.8h-43.2c-0.8 0-0.8 0-0.8 0.8l-2.4 15.2c0 0.8 0 0.8 0.8 0.8h43.2c0.8 0 0.8 0 0.8-0.8l2.4-15.2zM695.2 557.6c1.6 1.6 1.6 3.2 1.6 4.8 0 1.6-0.8 4-2.4 5.6l-3.2 3.2c-1.6 1.6-3.2 2.4-4.8 2.4-1.6 0-3.2-0.8-4.8-1.6-3.2-4-7.2-8.8-12-14.4v0.8l-7.2 40c0 1.6-1.6 4-3.2 4.8-1.6 1.6-3.2 2.4-5.6 2.4h-4c-1.6 0-3.2-0.8-4.8-2.4-0.8-1.6-1.6-3.2-0.8-4.8l7.2-39.2h-0.8c-9.6 11.2-20 20.8-29.6 28.8-1.6 1.6-3.2 1.6-5.6 1.6-1.6 0-3.2-0.8-4-2.4-0.8-0.8-1.6-2.4-2.4-3.2-0.8-0.8-0.8-2.4-0.8-4s1.6-3.2 3.2-4.8c14.4-10.4 28-22.4 39.2-37.6v-0.8h-25.6c-1.6 0-3.2-0.8-4.8-2.4-0.8-1.6-1.6-3.2-0.8-4.8V528c0-1.6 1.6-3.2 3.2-4.8 1.6-1.6 3.2-2.4 5.6-2.4h29.6c0.8 0 0.8 0 0.8-0.8l3.2-16.8c0-0.8 0-0.8-0.8-0.8h-30.4c-1.6 0-3.2-0.8-4.8-2.4-0.8-1.6-1.6-3.2-0.8-4.8v-1.6c0-1.6 1.6-4 3.2-4.8s3.2-1.6 5.6-1.6h12.8c0.8 0 0.8 0 0.8-0.8 0.8-5.6 0-12-0.8-18.4 0-1.6 0-3.2 1.6-5.6 0.8-1.6 2.4-2.4 4.8-3.2l6.4-1.6h-16.8c-1.6 0-3.2-0.8-4.8-2.4s-1.6-3.2-0.8-4.8v-1.6c0-1.6 1.6-4 3.2-4.8 1.6-1.6 3.2-2.4 5.6-2.4H672c0.8 0 0.8 0 0.8-0.8l1.6-11.2c0-1.6 1.6-4 3.2-4.8s3.2-2.4 5.6-2.4h4.8c1.6 0 3.2 0.8 4.8 2.4s1.6 3.2 0.8 4.8l-1.6 11.2c0 0.8 0 0.8 0.8 0.8H720c1.6 0 3.2 0.8 4.8 2.4s1.6 3.2 0.8 4.8v1.6c0 1.6-1.6 3.2-3.2 4.8-1.6 1.6-3.2 2.4-5.6 2.4h-16.8l6.4 1.6c1.6 0 3.2 1.6 3.2 3.2 0.8 1.6 0 3.2-0.8 4.8-5.6 8.8-8.8 15.2-11.2 19.2v0.8h16c1.6 0 3.2 0.8 4.8 1.6 0.8 1.6 1.6 3.2 0.8 4.8v1.6c0 1.6-1.6 4-3.2 4.8-1.6 1.6-3.2 2.4-5.6 2.4h-29.6c-0.8 0-0.8 0-0.8 0.8l-3.2 16.8c0 0.8 0 0.8 0.8 0.8h28c1.6 0 3.2 0.8 4.8 2.4 0.8 1.6 1.6 3.2 1.6 4.8v1.6c0 1.6-1.6 4-3.2 4.8-1.6 1.6-3.2 2.4-5.6 2.4h-28c-0.8 0-0.8 0-0.8 0.8v3.2c4 0.8 11.2 7.2 20.8 16.8z m0.8-102.4c0-0.8 0-0.8-0.8-0.8h-34.4c-0.8 0-0.8 0-0.8 0.8 1.6 6.4 3.2 12 3.2 19.2 0 1.6-0.8 4-1.6 5.6s-3.2 2.4-5.6 3.2l-4 0.8h42.4l-6.4-1.6c-1.6 0-2.4-1.6-3.2-3.2s0-3.2 0.8-4.8c4.8-7.2 8-13.6 10.4-19.2z m108 30.4c1.6 0 3.2 0.8 4.8 2.4 0.8 1.6 1.6 3.2 1.6 4.8l-0.8 3.2c0 1.6-1.6 4-3.2 4.8-1.6 1.6-3.2 2.4-5.6 2.4h-13.6c-0.8 0-0.8 0-0.8 0.8l-16 92.8c0 1.6-1.6 4-3.2 4.8-1.6 1.6-3.2 2.4-5.6 2.4h-4c-1.6 0-3.2-0.8-4.8-2.4-0.8-1.6-1.6-3.2-0.8-5.6L768 504c0-0.8 0-0.8-0.8-0.8h-24c-0.8 0-0.8 0-0.8 0.8v0.8c-7.2 42.4-22.4 73.6-44 95.2-1.6 1.6-3.2 1.6-4.8 1.6-1.6 0-3.2-0.8-4-2.4l-3.2-3.2c-1.6-1.6-1.6-3.2-1.6-5.6 0-1.6 0.8-3.2 2.4-4 5.6-5.6 11.2-12 15.2-19.2 4-7.2 8-14.4 10.4-21.6 2.4-7.2 4.8-14.4 6.4-20.8 1.6-6.4 3.2-12.8 4-20.8l11.2-63.2c0-1.6 1.6-3.2 3.2-4 1.6-0.8 3.2-1.6 4.8-0.8l4.8 1.6h1.6c20.8-4.8 36.8-9.6 49.6-14.4 1.6-0.8 3.2-0.8 4.8-0.8 2.4 0 4.8 0.8 6.4 2.4l4 4c0.8 0.8 1.6 2.4 0.8 4s-1.6 3.2-3.2 3.2c-16 5.6-35.2 11.2-59.2 15.2-0.8 0-0.8 0.8-0.8 0.8l-5.6 31.2c0 0.8 0 0.8 0.8 0.8h57.6z" fill="#ffffff" p-id="25379"></path></svg>