<?xml version="1.0" standalone="no"?><!DOCTYPE svg PUBLIC "-//W3C//DTD SVG 1.1//EN" "http://www.w3.org/Graphics/SVG/1.1/DTD/svg11.dtd"><svg t="1587370937076" class="icon" viewBox="0 0 1024 1024" version="1.1" xmlns="http://www.w3.org/2000/svg" p-id="12307" xmlns:xlink="http://www.w3.org/1999/xlink" width="10" height="10"><defs><style type="text/css"></style></defs><path d="M514 114.3c-219.9 0-398.8 178.9-398.8 398.8 0 220 178.9 398.9 398.8 398.9s398.8-178.9 398.8-398.8S733.9 114.3 514 114.3z m238.5 398.9c0 30.9-25.2 56.1-56.1 56.1H570.1v126.3c0 30.9-25.2 56.1-56.1 56.1s-56.1-25.2-56.1-56.1V569.3H331.6c-30.9 0-56.1-25.2-56.1-56.1s25.2-56.1 56.1-56.1h126.3V330.8c0-30.9 25.2-56.1 56.1-56.1 30.9 0 56.1 25.2 56.1 56.1v126.3h126.3c30.8 0 56.1 25.2 56.1 56.1z" p-id="12308" fill="#00b894"></path></svg>