<?xml version="1.0" standalone="no"?><!DOCTYPE svg PUBLIC "-//W3C//DTD SVG 1.1//EN" "http://www.w3.org/Graphics/SVG/1.1/DTD/svg11.dtd"><svg t="1586937919722" class="icon" viewBox="0 0 1024 1024" version="1.1" xmlns="http://www.w3.org/2000/svg" p-id="20513" xmlns:xlink="http://www.w3.org/1999/xlink" width="10" height="10"><defs><style type="text/css"></style></defs><path d="M666.544 112H357.456C221.896 112 112 221.892 112 357.456v309.088C112 802.104 221.892 912 357.456 912h309.088c135.56 0 245.456-109.892 245.456-245.456V357.456C912 221.896 802.108 112 666.544 112z" fill="#FFFFFF" p-id="20514"></path><path d="M644.924 167.96H379.076c-116.596 0-211.112 94.52-211.112 211.116v265.848c0 116.596 94.52 211.112 211.112 211.112h265.848c116.596 0 211.112-94.52 211.112-211.112V379.076c0-116.596-94.52-211.112-211.112-211.112z" fill="#BEECFC" p-id="20515"></path><path d="M626.924 214.548H397.08c-100.808 0-182.528 81.72-182.528 182.528v229.848c0 100.808 81.72 182.528 182.528 182.528h229.848c100.808 0 182.528-81.72 182.528-182.528V397.08c0-100.808-81.72-182.528-182.528-182.528z" fill="#70BAED" p-id="20516"></path><path d="M673.1 299.5C563.748 261.42 512 264.348 512 264.348s-51.748-2.928-161.1 35.152-132.784 199.176-127.904 281.192c4.88 82.016 14.644 104.472 88.848 169.888C386.048 815.996 512 811.22 512 811.22s125.952 4.776 200.156-60.64c74.2-65.416 83.968-87.872 88.848-169.888 4.88-82.016-18.552-243.116-127.904-281.192z" fill="#FFFFFF" p-id="20517"></path><path d="M636.388 732.384c-46.372 10.912-47.744 14.708-47.744 14.708s-31.728 12.568-43.364 11.204-33.28-14.82-33.28-14.82-21.64 13.456-33.28 14.82-43.364-11.204-43.364-11.204-1.372-3.8-47.744-14.708c-46.348-10.908-67.868 22.264-114.896-18.668 10.52 11.008 23.36 22.96 39.128 36.864C386.048 815.996 512 811.22 512 811.22s125.952 4.776 200.156-60.64c15.768-13.904 28.604-25.856 39.128-36.864-47.028 40.932-68.548 7.76-114.896 18.668z" fill="#F4F4F4" p-id="20518"></path><path d="M337.852 304.9l0.052-0.1S291.772 220.652 222.4 271.936c-63.144 46.68-52.52 147.568 15.728 171.068C254.352 384.92 284.968 329.64 337.852 304.9zM686.148 304.9l-0.052-0.1s46.132-84.148 115.508-32.864c63.144 46.68 52.52 147.568-15.728 171.068-16.228-58.088-46.844-113.368-99.728-138.104z" fill="#101820" p-id="20519"></path><path d="M533.12 750.212c-18.156-4.268 1.728-52.6 1.728-52.6L512 681.648l-22.848 15.96s19.88 48.336 1.724 52.604c-18.156 4.268-6.7 8.084-6.7 8.084l27.824-13.364 27.824 13.364s11.456-3.816-6.7-8.08z" fill="#939598" p-id="20520"></path><path d="M570.744 662.404c-8.64-32.828-58.744-35.132-58.744-35.132s-50.108 2.304-58.744 35.132c-8.64 32.828 9.788 28.8 21.308 25.344 11.52-3.456 14.4 21.88 37.436 21.88 23.04 0 25.92-25.336 37.436-21.88 11.52 3.456 29.948 7.484 21.308-25.344z" fill="#101820" p-id="20521"></path><path d="M583.74 747.932c-14.64 5-29.748 5.176-29.748 5.176l-15.352 1.36-26.64-6.808-26.64 6.808-15.352-1.36s-15.108-0.176-29.748-5.176 5.544 13.912 33.368 13.912 38.372-10.32 38.372-10.32 10.548 10.32 38.372 10.32c27.824 0 48.008-18.912 33.368-13.912z" fill="#939598" p-id="20522"></path><path d="M621.612 498.908s-48.912 6.72-44.2 53.276c5.084 50.296 62.336 131.48 104.84 131.48 42.508 0 63.48-17 60.08-62.34-3.4-45.34-22.672-140.552-120.72-122.416zM402.388 498.908s48.912 6.72 44.2 53.276c-5.084 50.296-62.336 131.48-104.84 131.48s-63.48-17-60.08-62.34c3.4-45.34 22.672-140.552 120.72-122.416z" fill="#101820" p-id="20523"></path><path d="M621.612 498.908s-48.912 6.72-44.2 53.276c5.084 50.296 62.336 131.48 104.84 131.48 42.508 0 63.48-17 60.08-62.34-3.4-45.34-22.672-140.552-120.72-122.416z" fill="#101820" p-id="20524"></path><path d="M669.892 499.9c11.8 4.12 38.324 20.188 47.824 82.212 12.356 80.668-36.708 102.816-70.316 87.112 11.832 8.96 23.84 14.44 34.856 14.44 42.504 0 63.472-17 60.072-62.34-2.744-36.612-15.864-105.72-72.436-121.424zM354.108 499.9c-11.8 4.12-38.324 20.188-47.824 82.212-12.356 80.668 36.708 102.816 70.316 87.112-11.832 8.96-23.84 14.44-34.856 14.44-42.504 0-63.472-17-60.072-62.34 2.744-36.612 15.864-105.72 72.436-121.424z" fill="#6D6E71" p-id="20525"></path><path d="M742.328 621.324c-2.744-36.612-15.864-105.72-72.436-121.424 4.536 1.584 59.464 14.56 65.892 121.424 2.628 43.704-16.112 60.992-55.504 62.22 0.66 0.04 1.32 0.12 1.976 0.12 42.504 0 63.472-17 60.072-62.34zM281.672 621.324c2.744-36.612 15.864-105.72 72.436-121.424-4.536 1.584-59.464 14.56-65.892 121.424-2.628 43.704 16.112 60.992 55.504 62.22-0.66 0.04-1.32 0.12-1.976 0.12-42.504 0-63.472-17-60.072-62.34z" fill="#939598" p-id="20526"></path><path d="M378.208 570.308m-47.716 0a47.716 47.716 0 1 0 95.432 0 47.716 47.716 0 1 0-95.432 0Z" fill="#FFFFFF" p-id="20527"></path><path d="M376.296 566.488m-39.344 0a39.344 39.344 0 1 0 78.688 0 39.344 39.344 0 1 0-78.688 0Z" fill="#101820" p-id="20528"></path><path d="M376.296 527.148c-21.728 0-39.34 17.612-39.34 39.34h39.34v-39.34z" fill="#6D6E71" p-id="20529"></path><path d="M645.792 570.308m-47.716 0a47.716 47.716 0 1 0 95.432 0 47.716 47.716 0 1 0-95.432 0Z" fill="#FFFFFF" p-id="20530"></path><path d="M643.884 566.488m-39.344 0a39.344 39.344 0 1 0 78.688 0 39.344 39.344 0 1 0-78.688 0Z" fill="#101820" p-id="20531"></path><path d="M643.88 527.148c-21.724 0-39.34 17.612-39.34 39.34h39.344v-39.34z" fill="#6D6E71" p-id="20532"></path><path d="M504.408 744.964c-4.068 3.316-18.26 7.416-34.4 8.144 18.02 14 41.992-1.588 41.992-1.588s23.972 15.584 41.992 1.588c-16.14-0.728-30.332-4.828-34.4-8.144-9.32-7.592 2.072-51.072 2.072-51.072h-19.328s11.388 43.48 2.072 51.072z" fill="#101820" p-id="20533"></path><path d="M354.108 499.9c13.48-3.74 29.408-4.48 48.28-0.992 0 0 48.912 6.72 44.2 53.276-0.376 3.736-1.072 7.656-2 11.688h0.012s7.092-24.184 6.424-45.46c-0.672-21.28-53.528-79.036-96.92-18.512zM669.892 499.9c-13.48-3.74-29.408-4.48-48.28-0.992 0 0-48.912 6.72-44.2 53.276a95.6 95.6 0 0 0 2 11.688h-0.012s-7.092-24.184-6.424-45.46c0.672-21.28 53.528-79.036 96.92-18.512z" fill="#E6E7E8" p-id="20534"></path><path d="M512 781.484c-29.092 0-55.084 9.32-72.296 23.936 40.784 6.992 72.296 5.8 72.296 5.8s31.512 1.192 72.296-5.8c-17.212-14.62-43.204-23.936-72.296-23.936z" fill="#E8E8E8" p-id="20535"></path><path d="M512 751.52s-4.188 2.696-10.34 4.84c4.52 3.268 10.34 2.936 10.34 2.936s5.82 0.332 10.34-2.936c-6.152-2.144-10.34-4.84-10.34-4.84z" fill="#101820" p-id="20536"></path><path d="M486.768 647.092a25.232 14.868 0 1 0 50.464 0 25.232 14.868 0 1 0-50.464 0Z" fill="#6D6E71" p-id="20537"></path><path d="M712.156 750.58C637.952 815.996 512 811.22 512 811.22s-125.952 4.776-200.156-60.64c-15.768-13.904-28.604-25.856-39.128-36.864 0 0.004-21.084 27.292-31.884 90.688 37.04 32.136 85.352 51.636 138.244 51.636h265.848c52.892 0 101.2-19.5 138.244-51.64-10.8-63.392-31.88-90.68-31.884-90.68-10.52 11-23.36 22.956-39.128 36.86z" fill="#101820" p-id="20538"></path><path d="M383.808 683.664a22.84 12.244 0 1 0 45.68 0 22.84 12.244 0 1 0-45.68 0Z" fill="#FF647D" p-id="20539"></path><path d="M594.512 683.664a22.84 12.244 0 1 0 45.68 0 22.84 12.244 0 1 0-45.68 0Z" fill="#FF647D" p-id="20540"></path></svg>