<?xml version="1.0" standalone="no"?><!DOCTYPE svg PUBLIC "-//W3C//DTD SVG 1.1//EN" "http://www.w3.org/Graphics/SVG/1.1/DTD/svg11.dtd"><svg t="1586935972139" class="icon" viewBox="0 0 1024 1024" version="1.1" xmlns="http://www.w3.org/2000/svg" p-id="18898" xmlns:xlink="http://www.w3.org/1999/xlink" width="10" height="10"><defs><style type="text/css"></style></defs><path d="M808.96 136.533333h-136.533333c-17.066667-78.506667-81.92-136.533333-163.84-136.533333S354.986667 58.026667 341.333333 136.533333H204.8C129.706667 136.533333 68.266667 197.973333 68.266667 273.066667v614.4c0 75.093333 61.44 136.533333 133.12 136.533333h604.16c75.093333 0 133.12-61.44 133.12-136.533333V273.066667c3.413333-75.093333-58.026667-136.533333-129.706667-136.533334z m-303.786667-68.266666c44.373333 0 78.506667 27.306667 95.573334 68.266666H409.6c13.653333-40.96 51.2-68.266667 95.573333-68.266666z m201.386667 750.933333H303.786667c-17.066667 0-34.133333-13.653333-34.133334-34.133333s13.653333-34.133333 34.133334-34.133334h402.773333c17.066667 0 34.133333 13.653333 34.133333 34.133334s-17.066667 34.133333-34.133333 34.133333z m0-204.8H303.786667c-17.066667 0-34.133333-13.653333-34.133334-34.133333s13.653333-34.133333 34.133334-34.133334h402.773333c17.066667 0 34.133333 13.653333 34.133333 34.133334s-17.066667 34.133333-34.133333 34.133333z m0-204.8H303.786667c-17.066667 0-34.133333-13.653333-34.133334-34.133333s13.653333-34.133333 34.133334-34.133334h402.773333c17.066667 0 34.133333 13.653333 34.133333 34.133334s-17.066667 34.133333-34.133333 34.133333z" p-id="18899" fill="#909399"></path></svg>