<?xml version="1.0" standalone="no"?><!DOCTYPE svg PUBLIC "-//W3C//DTD SVG 1.1//EN" "http://www.w3.org/Graphics/SVG/1.1/DTD/svg11.dtd"><svg t="1586867876356" class="icon" viewBox="0 0 1024 1024" version="1.1" xmlns="http://www.w3.org/2000/svg" p-id="2790" width="28" height="28" xmlns:xlink="http://www.w3.org/1999/xlink"><defs><style type="text/css"></style></defs><path d="M438.4 684.8l-22.4-22.4 310.4-310.4c6.4-6.4 9.6-22.4 0-32l-57.6-57.6c-6.4-6.4-22.4-9.6-32 0L326.4 576l-22.4-22.4 310.4-310.4c22.4-22.4 57.6-19.2 76.8 0l57.6 57.6c22.4 22.4 19.2 57.6 0 76.8l-310.4 307.2z" fill="#bfbfbf" p-id="2791"></path><path d="M281.6 729.6c-3.2 0-9.6 0-12.8-3.2-3.2-3.2-6.4-9.6-3.2-16l35.2-150.4c0-6.4 6.4-9.6 9.6-12.8 6.4-3.2 12.8 0 16 3.2l115.2 108.8c3.2 3.2 6.4 9.6 3.2 16 0 6.4-6.4 9.6-9.6 12.8l-150.4 41.6h-3.2z m44.8-137.6l-22.4 96 96-25.6-73.6-70.4zM561.696 308.992l22.624-22.624 122.176 122.24-22.656 22.592zM819.2 809.6H230.4c-9.6 0-16-6.4-16-16s6.4-16 16-16h588.8c9.6 0 16 6.4 16 16s-6.4 16-16 16z" fill="#bfbfbf" p-id="2792"></path></svg>