<?xml version="1.0" standalone="no"?><!DOCTYPE svg PUBLIC "-//W3C//DTD SVG 1.1//EN" "http://www.w3.org/Graphics/SVG/1.1/DTD/svg11.dtd"><svg t="1586869627378" class="icon" viewBox="0 0 1024 1024" version="1.1" xmlns="http://www.w3.org/2000/svg" p-id="6599" xmlns:xlink="http://www.w3.org/1999/xlink" width="20" height="20"><defs><style type="text/css"></style></defs><path d="M748.4 586.1c-10.4 33.3-27.4 63.6-49.6 89.4-28-18.4-59.5-32.7-93.3-42.4 5.6-32 9.1-67 9.9-104h180.1c0.4-6 0.6-12 0.6-18 0-6.1-0.3-12.2-0.6-18.2h-36.4v0.2H615.4c-0.8-37.1-4.3-72.1-9.9-104 33.8-9.7 65.3-24 93.3-42.4 22.2 25.8 39.2 56 49.5 89.2h37.9c-33.1-123-145.3-213.5-278.7-213.5-133.4 0-245.6 90.5-278.7 213.5h37.9c10.3-33.2 27.3-63.4 49.4-89.2 28 18.4 59.5 32.6 93.4 42.3-5.6 32-9.1 67-9.9 104.1H255.7v-0.2h-36.4c-0.4 6-0.6 12.1-0.6 18.2s0.2 12.1 0.6 18h180.2c0.8 37.1 4.3 72.1 9.9 104.1-33.9 9.7-65.4 23.9-93.4 42.3-22.2-25.8-39.2-56.1-49.5-89.4h-37.9c33 123 145.3 213.7 278.8 213.7s245.7-90.6 278.8-213.7h-37.8z m-75.6-265.6c-22.7 14-47.9 25.2-74.7 33.1-8.8-35.9-20.5-66.1-34.2-88.5 41 9.3 78.2 28.7 108.9 55.4zM435.6 493c0.8-35.9 4.1-67.9 9-95.8 20.4 3.6 41.3 5.6 62.9 5.6 21.5 0 42.5-1.9 62.9-5.5 4.8 27.9 8.1 59.9 9 95.8H435.6z m143.6 36.1c-0.8 35.8-4.1 67.9-9 95.8-20.3-3.6-41.3-5.5-62.8-5.5s-42.5 2-62.9 5.6c-4.8-27.9-8.1-59.9-9-95.8h143.7z m-71.8-270.6c13.3 0 38.7 35.6 55.6 103.4-18 3.1-36.5 4.8-55.6 4.8-19 0-37.6-1.7-55.5-4.8 16.9-67.8 42.3-103.4 55.5-103.4z m-165.3 62c30.7-26.7 67.9-46 108.8-55.4-13.7 22.4-25.4 52.6-34.2 88.5-26.7-7.9-51.8-19.1-74.6-33.1z m0 381.2c22.7-14 47.8-25.2 74.6-33.1 8.8 35.8 20.5 66.1 34.2 88.5-40.9-9.4-78-28.7-108.8-55.4z m165.3 62c-13.3 0-38.7-35.6-55.5-103.4 18-3.1 36.5-4.8 55.5-4.8s37.6 1.7 55.6 4.8c-16.9 67.8-42.3 103.4-55.6 103.4z m56.5-6.6c13.7-22.4 25.5-52.6 34.2-88.5 26.9 7.9 51.9 19 74.7 33-30.7 26.7-67.9 46.1-108.9 55.5z" fill="#f6b93b" p-id="6600"></path><path d="M240.1 511.1m-36.9 0a36.9 36.9 0 1 0 73.8 0 36.9 36.9 0 1 0-73.8 0Z" fill="#f6b93b" p-id="6601"></path><path d="M240.1 562.2c-28.2 0-51.1-22.9-51.1-51.1 0-28.2 22.9-51.1 51.1-51.1s51.1 22.9 51.1 51.1c0 28.2-22.9 51.1-51.1 51.1z m0-73.7c-12.5 0-22.6 10.1-22.6 22.6 0 12.5 10.1 22.6 22.6 22.6s22.6-10.1 22.6-22.6c0-12.5-10.1-22.6-22.6-22.6z" fill="#f6b93b" p-id="6602"></path><path d="M781.4 511.1m-36.9 0a36.9 36.9 0 1 0 73.8 0 36.9 36.9 0 1 0-73.8 0Z" fill="#f6b93b" p-id="6603"></path><path d="M781.4 562.2c-28.2 0-51.1-22.9-51.1-51.1 0-28.2 22.9-51.1 51.1-51.1 28.2 0 51.1 22.9 51.1 51.1 0 28.2-23 51.1-51.1 51.1z m0-73.7c-12.5 0-22.6 10.1-22.6 22.6 0 12.5 10.1 22.6 22.6 22.6 12.5 0 22.6-10.1 22.6-22.6 0-12.5-10.2-22.6-22.6-22.6z" fill="#f6b93b" p-id="6604"></path><path d="M493.8 135c5.6-0.2 11.3-0.4 16.9-0.4 207.8 0 376.8 169 376.8 376.8 0 116.7-53.3 221.1-136.8 290.3l10.7 27.8c94-74.3 154.6-189.2 154.6-318.1 0-223.5-181.8-405.3-405.3-405.3-9.3 0-18.5 0.4-27.7 1.1l10.8 27.8zM504.6 888.1c-205-3.3-370.7-170.9-370.7-376.7 0-108.4 46.1-206.2 119.5-275l-11-28.5c-84 74.3-137.1 182.8-137.1 303.5 0 223.5 181.8 405.3 405.3 405.3 1.6 0 3.3-0.1 4.9-0.1l-10.9-28.5z" fill="#f6b93b" p-id="6605"></path><path d="M510.7 902.8m-36.9 0a36.9 36.9 0 1 0 73.8 0 36.9 36.9 0 1 0-73.8 0Z" fill="#f6b93b" p-id="6606"></path><path d="M510.7 954c-28.2 0-51.1-22.9-51.1-51.1 0-28.2 22.9-51.1 51.1-51.1 28.2 0 51.1 22.9 51.1 51.1 0 28.1-22.9 51.1-51.1 51.1z m0-73.8c-12.5 0-22.6 10.1-22.6 22.6 0 12.5 10.1 22.6 22.6 22.6s22.6-10.1 22.6-22.6c0-12.4-10.1-22.6-22.6-22.6z" fill="#f6b93b" p-id="6607"></path><path d="M510.7 119.3m-36.9 0a36.9 36.9 0 1 0 73.8 0 36.9 36.9 0 1 0-73.8 0Z" fill="#f6b93b" p-id="6608"></path><path d="M510.7 170.4c-28.2 0-51.1-22.9-51.1-51.1s22.9-51.1 51.1-51.1c28.2 0 51.1 22.9 51.1 51.1s-22.9 51.1-51.1 51.1z m0-73.7c-12.5 0-22.6 10.1-22.6 22.6s10.1 22.6 22.6 22.6 22.6-10.1 22.6-22.6-10.1-22.6-22.6-22.6z" fill="#f6b93b" p-id="6609"></path></svg>