<?xml version="1.0" standalone="no"?><!DOCTYPE svg PUBLIC "-//W3C//DTD SVG 1.1//EN" "http://www.w3.org/Graphics/SVG/1.1/DTD/svg11.dtd"><svg t="1587442113777" class="icon" viewBox="0 0 1024 1024" version="1.1" xmlns="http://www.w3.org/2000/svg" p-id="1760" xmlns:xlink="http://www.w3.org/1999/xlink" width="10" height="10"><defs><style type="text/css"></style></defs><path d="M709.8368 0H314.1632A314.1632 314.1632 0 0 0 0 314.1632v395.6736A314.1632 314.1632 0 0 0 314.1632 1024h395.6736A314.1632 314.1632 0 0 0 1024 709.8368V314.1632A314.1632 314.1632 0 0 0 709.8368 0z" fill="#FFFFFF" p-id="1761"></path><path d="M682.1376 71.68H341.8624A270.2336 270.2336 0 0 0 71.68 341.8624v340.2752A270.2336 270.2336 0 0 0 341.8624 952.32h340.2752A270.2336 270.2336 0 0 0 952.32 682.1376V341.8624A270.2336 270.2336 0 0 0 682.1376 71.68z" fill="#EF3AAE" p-id="1762"></path><path d="M664.0128 118.528H359.9872a241.408 241.408 0 0 0-241.4592 241.4592v304.0256a241.408 241.408 0 0 0 241.4592 241.4592h304.0256a241.408 241.408 0 0 0 241.4592-241.4592V359.9872a241.408 241.408 0 0 0-241.4592-241.4592z" fill="#CB007B" p-id="1763"></path><path d="M799.0272 343.5008c-31.7952-21.6064-47.6672-48.8448-122.624-111.3088A308.224 308.224 0 0 0 512 165.1712a308.224 308.224 0 0 0-164.4032 67.0208c-74.9568 62.464-90.8288 89.7024-122.88 111.3088s-52.2752 165.7856 11.3152 254.3616 53.4016 59.0336 93.1328 126.0544 128.9216 70.4 182.5792 16.9984c53.6576 53.4016 142.7968 49.9712 182.5792-16.9984s29.4912-37.4784 93.1328-126.0544 43.3664-232.8064 11.5712-254.3616z" fill="#EC7700" p-id="1764"></path><path d="M352.1536 195.84c-61.44 32.9216-96.512 99.9424-149.9136 112.64S126.9248 363.52 122.368 449.8432s19.1488 205.9264 72.192 243.7632c40.96 28.9792 46.08 99.1232 116.2752 130.4576s53.3504 42.0352 80.1792 42.6496 4.1472 36.4544 120.4224 36.5568h0.5632c-32.0512 0-74.7008-9.0624-106.496-49.9712a100.9664 100.9664 0 0 1-8.96-13.7216c-1.1776-2.1504-2.2016-4.3008-3.1232-6.4512a78.0288 78.0288 0 0 1-4.3008-12.5952 80.1792 80.1792 0 0 1-2.048-11.776 82.3296 82.3296 0 0 1-0.3584-10.496v-4.608a65.6896 65.6896 0 0 1 4.6592-19.7632c1.2288 0.4096 2.5088 0.768 3.7888 1.0752a107.52 107.52 0 0 1-66.048-50.2784c-39.7312-67.0208-29.4912-37.4784-93.1328-126.0544s-42.8032-233.5744-11.008-255.1296 47.6672-48.8448 122.88-111.3088A308.224 308.224 0 0 1 512 165.1712s-98.5088-2.2528-159.8464 30.6688zM901.632 449.8432c-4.5568-86.3232-26.5216-129.0752-79.872-141.568s-88.576-79.5136-149.9136-112.64-159.8464-30.72-159.8464-30.72a308.224 308.224 0 0 1 164.4032 67.0208c74.9568 62.464 90.8288 89.7024 122.624 111.3088s52.2752 165.7856-11.3152 254.3616-53.4016 59.0336-93.1328 126.0544a107.52 107.52 0 0 1-66.048 50.2784c1.28-0.3072 2.56-0.6656 3.7888-1.0752a67.4816 67.4816 0 0 1 4.6592 19.6608v0.3584c0 1.4336 0 2.9696 0.256 4.5568a82.3296 82.3296 0 0 1-0.3584 10.496 80.1792 80.1792 0 0 1-2.048 11.776 78.0288 78.0288 0 0 1-4.3008 12.5952c-0.9216 2.0992-1.9456 4.3008-3.1232 6.4512a100.9664 100.9664 0 0 1-8.96 13.7216c-31.6416 40.6528-73.984 49.8688-105.984 49.9712 115.6608 0 93.1328-35.84 119.8592-36.5568 25.6-0.5632 75.6736-39.1168 79.9232-42.4448 70.7584-31.1296 76.032-101.632 116.9408-130.7136 53.2992-36.9664 77.056-156.5696 72.448-242.8928z" fill="#FFFFFF" p-id="1765"></path><path d="M512 740.9152A122.2144 122.2144 0 0 1 391.6288 773.12s37.4784 31.3344 120.32 31.3344S632.32 773.12 632.32 773.12a122.2144 122.2144 0 0 1-120.32-32.2048z" fill="#101820" p-id="1766"></path><path d="M309.6064 356.3008C331.008 427.3152 436.3776 463.0528 412.672 512s-47.4624 78.3872-89.1904 110.6432c-40.192 31.0784-19.8144 61.0304-18.2784 63.1296 5.9392 8.2944 13.1072 19.456 24.1152 37.9904 39.7824 66.9696 128.9216 70.4 182.5792 16.9984 53.6576 53.4016 142.7968 49.9712 182.5792-16.9984 11.008-18.5344 18.176-29.696 24.1152-37.9904 1.536-2.1504 21.8624-32.0512-18.2784-63.1296-41.728-32.256-65.4336-61.696-89.1904-110.6432s81.664-84.6848 103.0656-155.6992c17.9712-59.5968-20.48-109.7728-50.6368-133.9904-5.12-3.8912-10.5984-7.5776-15.9232-10.9568-1.8432-0.9728-3.8912-2.2528-6.2464-3.7888A310.3232 310.3232 0 0 0 512 165.1712a310.3232 310.3232 0 0 0-129.5872 42.3936c-2.3552 1.536-4.4032 2.816-6.2464 3.7888-5.12 3.3792-10.6496 7.0656-15.9232 10.9568C330.0864 246.528 291.84 296.96 309.6064 356.3008z" fill="#FEAA61" p-id="1767"></path><path d="M700.5184 622.6432a314.112 314.112 0 0 1-42.752-39.0144s-16.8448 4.5568-25.6 37.376-65.8944 43.0592-65.8944 43.0592l-54.272 29.4912-54.4768-29.4912s-57.2928-10.24-65.8944-43.0592-25.6-37.376-25.6-37.376a314.112 314.112 0 0 1-42.752 39.0144c-40.192 31.0784-19.8144 61.0304-18.2784 63.1296 5.9392 8.2944 13.1072 19.456 24.1152 37.9904 39.7824 66.9696 128.9216 70.4 182.5792 16.9984 53.6576 53.4016 142.7968 49.9712 182.5792-16.9984 11.008-18.5344 18.176-29.696 24.1152-37.9904 1.9456-2.0992 22.3232-32.0512-17.8688-63.1296z" fill="#F88D2B" p-id="1768"></path><path d="M694.5792 723.9168c8.6016-14.5408 14.848-24.5248 20.0704-32.1536-58.6752 67.9936-120.832 36.8128-147.3536 26.5216s-55.296 8.3456-55.296 8.3456-28.0576-18.8928-55.296-8.3456-88.6784 41.472-147.3536-26.5216c5.12 7.6288 11.4688 17.6128 20.0704 32.1536 39.7824 66.9696 128.9216 70.4 182.5792 16.9984 53.6576 53.4016 142.7968 49.9712 182.5792-16.9984z" fill="#FFD5BD" p-id="1769"></path><path d="M505.344 693.5552h13.3632v72.2944H505.344z" fill="#101820" p-id="1770"></path><path d="M699.6992 252.1088c-7.0656-6.2464-14.7968-12.8512-23.296-19.9168-4.1984-3.4816-8.3968-6.7584-12.6464-9.8816 30.1568 24.2176 68.608 74.3936 50.6368 133.9904-21.4016 71.0144-126.7712 106.752-103.0656 155.6992a297.7792 297.7792 0 0 0 46.4384 71.68c10.752-25.2416 39.2704-45.6704 75.1616-135.3728 38.4-96-0.1536-161.5872-33.2288-196.1984zM412.672 512c23.7056-48.9472-81.664-84.6848-103.0656-155.6992-17.7664-59.3408 20.48-109.7728 50.6368-133.9904-4.2496 3.1232-8.448 6.4-12.6464 9.8816-8.4992 7.0656-16.2304 13.6704-23.296 19.9168-33.0752 34.816-71.68 100.1984-33.2288 196.1472 35.84 89.7024 64.4096 110.1312 75.1616 135.3728A297.7792 297.7792 0 0 0 412.672 512z" fill="#D65F00" p-id="1771"></path><path d="M202.24 308.2752c53.4016-12.4928 88.576-79.5136 149.9136-112.64q3.7376-1.9968 7.68-3.84a46.5408 46.5408 0 0 1-10.24-9.9328C334.08 161.3312 307.2 71.68 162.816 71.68c0 0-51.8656 122.88 33.1776 238.336 2.048-0.6656 4.096-1.2288 6.2464-1.7408z" fill="#FFF7F3" p-id="1772"></path><path d="M349.6448 182.0672C334.08 161.3312 307.2 71.68 162.816 71.68c0 0-1.5872 3.6864-3.6864 10.24 0 0 104.9088 10.8544 129.3312 59.7504 9.5744 19.1488 16.3328 49.92 23.4496 82.5344a224.8704 224.8704 0 0 1 40.2432-28.3648q3.7376-1.9968 7.68-3.84a46.5408 46.5408 0 0 1-10.1888-9.9328z" fill="#101820" p-id="1773"></path><path d="M216.576 303.5136A190.6176 190.6176 0 0 0 256.3072 276.48c17.92-15.872 35.84-35.0208 55.6032-52.2752-7.1168-32.6144-13.8752-63.3856-23.4496-82.5344-17.2544-34.5088-74.5472-50.0736-106.752-56.32 0 0-41.3696 115.8656 34.8672 218.0608z" fill="#FEAA61" p-id="1774"></path><path d="M253.44 278.9376c18.944-16.3328 37.4272-36.608 58.4704-54.7328-7.1168-32.6144-13.8752-63.3856-23.4496-82.5344-11.7248-23.4496-41.8816-38.144-70.144-47.0528 0 0.256-21.3504 103.1168 30.3104 188.416z" fill="#D65F00" p-id="1775"></path><path d="M821.76 308.2752c-53.4016-12.4928-88.576-79.5136-149.9136-112.64q-3.7888-1.9968-7.68-3.84a46.5408 46.5408 0 0 0 10.24-9.9328C689.92 161.3312 716.8 71.68 861.184 71.68c0 0 51.8656 122.88-33.1776 238.336-2.048-0.6656-4.096-1.2288-6.2464-1.7408z" fill="#FFF7F3" p-id="1776"></path><path d="M674.3552 182.0672C689.92 161.3312 716.8 71.68 861.184 71.68c0 0 1.5872 3.6864 3.6864 10.24 0 0-104.9088 10.8544-129.3312 59.7504-9.5744 19.1488-16.3328 49.92-23.4496 82.5344a224.8704 224.8704 0 0 0-40.2432-28.3648q-3.7888-1.9968-7.68-3.84a46.5408 46.5408 0 0 0 10.1888-9.9328z" fill="#101820" p-id="1777"></path><path d="M807.424 303.5136a190.6176 190.6176 0 0 1-39.7312-27.0336c-17.92-15.872-35.584-35.0208-55.6032-52.2752 7.1168-32.6144 13.8752-63.3856 23.4496-82.5344 17.2544-34.5088 74.5472-50.0736 106.752-56.32 0 0 41.3696 115.8656-34.8672 218.0608z" fill="#FEAA61" p-id="1778"></path><path d="M770.56 278.9376c-18.944-16.3328-37.4272-36.608-58.4704-54.7328 7.1168-32.6144 13.8752-63.3856 23.4496-82.5344 11.7248-23.4496 41.8816-38.144 70.144-47.0528 0 0.256 21.3504 103.1168-30.3104 188.416z" fill="#D65F00" p-id="1779"></path><path d="M632.32 773.12s-37.4784 31.3344-120.32 31.3344S391.68 773.12 391.68 773.12s-17.9712 39.3216 13.824 80.1792 74.4448 49.9712 106.496 49.9712 74.7008-9.0624 106.496-49.9712 13.824-80.1792 13.824-80.1792z" fill="#FEAA61" p-id="1780"></path><path d="M512 835.6352c63.744 0 104.5504-16.4352 125.0304-27.6992a74.8032 74.8032 0 0 0-4.7104-34.7648s-37.4784 31.3344-120.32 31.3344S391.68 773.12 391.68 773.12a74.8032 74.8032 0 0 0-4.7104 34.7648c20.48 11.3152 61.2864 27.7504 125.0304 27.7504z" fill="#F88D2B" p-id="1781"></path><path d="M632.3712 621.0048c-2.5088-4.4544-20.8384 24.832-33.3312 24.832s-21.6064-6.5536-35.2768 0.8192-28.1088 17.7664-51.7632 17.7664-38.0928-10.24-51.7632-17.7664-22.7328-0.8192-35.2768-0.8192-30.72-29.2864-33.3312-24.832 12.8512 42.24 58.112 78.592 62.2592 27.0336 62.2592 27.0336 17.0496 9.2672 62.2592-27.0336 60.6208-74.1376 58.112-78.592z" fill="#101820" p-id="1782"></path><path d="M583.936 644.4032l-7.168-3.2256a9.5232 9.5232 0 0 0-8.8576 0.512c-9.0624 5.12-31.7952 17.2544-55.9104 17.2544s-46.848-11.8784-55.9104-17.2544a9.5232 9.5232 0 0 0-8.8576-0.512l-7.168 3.2256a9.6768 9.6768 0 0 0 2.1504 18.2784c36.864 7.7312 44.9024 41.6768 46.6432 54.1184a9.2672 9.2672 0 0 0 5.4784 7.3728 36.4544 36.4544 0 0 0 16.8448 2.4576h1.6384a36.4544 36.4544 0 0 0 16.8448-2.4576 9.2672 9.2672 0 0 0 5.4784-7.3728c1.7408-12.4416 9.7792-46.3872 46.6432-54.1184a9.6768 9.6768 0 0 0 2.1504-18.2784z" fill="#FF647D" p-id="1783"></path><path d="M456.0896 641.6896c9.0624 5.12 31.7952 17.2544 55.9104 17.2544s46.848-11.8784 55.9104-17.2544a9.0112 9.0112 0 0 1 5.12-1.28s-6.0928-1.9456-24.0128 6.4-27.392 9.5744-36.9664 9.5744-19.0464-1.2288-36.9664-9.5744-24.0128-6.4-24.0128-6.4a9.0112 9.0112 0 0 1 5.0176 1.28z" fill="#F3EFA1" p-id="1784"></path><path d="M349.0304 232.2432c-27.4432 26.5728-55.2448 71.68-39.424 124.0576 19.968 66.2528 113.0496 101.8368 106.0864 146.0736s17.3056-35.4304 16.1792-65.9968-25.088-65.9968 0-98.6112 0.7168-104.704-82.8416-105.5232zM674.9696 232.2432c-83.5584 0.8192-107.9808 73.1136-82.944 105.5232s1.1776 68.0448 0 98.6112 16.1792 65.9968 16.1792 65.9968c-6.9632-44.2368 86.1184-79.8208 106.0864-146.0736 15.9232-52.3776-11.8784-97.4848-39.3216-124.0576z" fill="#FFD5BD" p-id="1785"></path><path d="M391.6288 520.9088c-3.584 21.6576-25.6 62.72-25.6 62.72a297.7792 297.7792 0 0 0 46.4384-71.68c20.48-42.3424-55.7056-74.9056-90.4192-128.9216s-32.1536 8.8064-32.1536 62.6688 105.3184 53.504 101.7344 75.2128zM632.3712 520.9088c3.584 21.6576 25.6 62.72 25.6 62.72a297.7792 297.7792 0 0 1-46.4384-71.68c-20.48-42.3424 55.7056-74.9056 90.4192-128.9216s32.1536 8.8064 32.1536 62.6688-105.3184 53.504-101.7344 75.2128z" fill="#101820" p-id="1786"></path><path d="M332.8 397.1584A48.8448 48.8448 0 1 0 401.408 465.92C384 445.1328 354.2016 423.7312 332.8 397.1584z" fill="#00BBB4" p-id="1787"></path><path d="M364.032 468.48a33.8944 33.8944 0 0 0 27.136-13.6192c-14.4384-14.3872-32.8192-29.3888-48.8448-46.5408A33.9968 33.9968 0 0 0 364.032 468.48z" fill="#101820" p-id="1788"></path><path d="M360.6016 426.3936c-6.1952-5.7856-12.3904-11.776-18.2784-18.0736a33.9968 33.9968 0 0 0-12.288 26.1632 32.4096 32.4096 0 0 0 0.256 3.8912h30.3104z" fill="#FFFFFF" p-id="1789"></path><path d="M691.456 397.1584A48.8448 48.8448 0 1 1 622.592 465.92c17.408-20.7872 47.2064-42.1888 68.864-68.7616z" fill="#00BBB4" p-id="1790"></path><path d="M659.968 468.48a33.8944 33.8944 0 0 1-27.136-13.6192c14.4384-14.3872 32.8192-29.3888 48.8448-46.5408a33.9968 33.9968 0 0 1-21.7088 60.16z" fill="#101820" p-id="1791"></path><path d="M663.3984 426.3936c6.1952-5.7856 12.3904-11.776 18.2784-18.0736a33.9968 33.9968 0 0 1 12.288 26.1632 32.4096 32.4096 0 0 1 0 3.8912h-30.3104zM389.6832 440.32c-21.6064-16.0256-61.1328-49.7152-74.5472-69.888 27.5968 57.4464 107.008 91.0336 100.5568 131.9936a202.3424 202.3424 0 0 0 8.2432-20.736A117.76 117.76 0 0 0 389.6832 440.32z" fill="#FFFFFF" p-id="1792"></path><path d="M634.3168 440.32c21.6064-16.0256 61.1328-49.7152 74.5472-69.888-27.5968 57.4464-107.008 91.0336-100.5568 131.9936a202.3424 202.3424 0 0 1-8.2432-20.736 117.76 117.76 0 0 1 34.2528-41.3696z" fill="#FFFFFF" p-id="1793"></path><path d="M601.7024 629.76c-12.2368-2.2016-31.488-4.2496-30.72-15.616a383.6416 383.6416 0 0 0-4.7104-97.792c-13.568-85.248-20.48-93.0816-54.3232-93.0816s-40.96 7.8336-54.3232 93.0816a383.6416 383.6416 0 0 0-4.7104 97.792c0.8192 11.3664-18.432 13.4144-30.72 15.616s-10.24 9.1136-10.24 9.1648a22.8864 22.8864 0 0 0 12.9536 6.8096 123.4432 123.4432 0 0 0 17.2032-2.3552l5.12-2.304a9.472 9.472 0 0 1 3.7888-0.768 17.5616 17.5616 0 0 1 7.3728 0.4608 56.8832 56.8832 0 0 1 6.6048 1.8432h0.512l3.9936 1.4848 0.768 0.3072c1.4848 0.6144 3.072 1.28 4.7616 2.0992 17.92 8.3456 27.392 9.5744 36.9664 9.5744s19.0464-1.2288 36.9664-9.5744c1.6896-0.8192 3.2768-1.4848 4.7616-2.0992l0.768-0.3072 3.9936-1.4848h0.512a56.8832 56.8832 0 0 1 6.6048-1.8432 17.5616 17.5616 0 0 1 7.3728-0.4608 9.472 9.472 0 0 1 3.7888 0.768l5.12 2.304a123.4432 123.4432 0 0 0 17.2032 2.3552 22.8864 22.8864 0 0 0 12.9536-6.8096s1.8432-6.8096-10.3424-9.1648z" fill="#FFD5BD" p-id="1794"></path><path d="M422.2976 629.76c12.2368-2.2016 31.488-4.2496 30.72-15.616a383.6416 383.6416 0 0 1 4.7104-97.792c2.9696-18.7904 5.632-37.1712 8.3456-54.3744-11.8784 39.7824-19.2 81.92-45.1584 121.5488s-8.8064 55.3984-8.8064 55.3984-1.9968-6.8096 10.1888-9.1648zM603.1872 583.68c-25.9584-39.7312-33.28-81.92-45.1584-121.5488 2.7136 17.2032 5.376 35.84 8.3456 54.3744a383.6416 383.6416 0 0 1 4.7104 97.792c-0.8192 11.3664 18.432 13.4144 30.72 15.616s10.24 9.1136 10.24 9.1648 17.1008-15.7184-8.8576-55.3984z" fill="#F88D2B" p-id="1795"></path><path d="M290.0992 445.7472c0-53.8624 32.1536-62.6688 32.1536-62.6688a123.648 123.648 0 0 1-7.1168-12.6976s-20.48 3.0208-33.8432 48.2304-0.8192 80.7936 35.84 93.3888a204.288 204.288 0 0 1 65.7408 36.7104 141.4144 141.4144 0 0 0 8.96-27.8016c3.3792-21.7088-101.7344-21.3504-101.7344-75.1616zM733.9008 445.7472c0-53.8624-32.1536-62.6688-32.1536-62.6688a123.648 123.648 0 0 0 7.1168-12.6976s20.48 3.0208 33.8432 48.2304 0.8192 80.7936-35.84 93.3888a204.288 204.288 0 0 0-65.7408 36.7104 141.4144 141.4144 0 0 1-8.96-27.8016c-3.3792-21.7088 101.7344-21.3504 101.7344-75.1616z" fill="#FFFFFF" p-id="1796"></path><path d="M431.9744 337.92c-15.36 20.1216-12.3392 41.3184-7.3216 61.7984v0.8704c0.6656 2.816 1.3824 5.632 2.0992 8.3968a104.448 104.448 0 0 0 39.0656 53.248l1.4336 2.4576c9.0624-36.864 19.3024-40.96 44.544-40.96s35.4816 4.3008 44.544 40.96l1.4336-2.4576a104.448 104.448 0 0 0 39.0656-53.248c0.7168-2.7648 1.4336-5.5808 2.0992-8.3968v-0.8704c5.12-20.48 8.192-41.6768-7.3216-61.7984-24.9856-32.4096-0.6144-104.6528 82.8416-105.5232-3.7376-3.6352-7.4752-7.0144-11.1104-9.9328-5.12-3.8912-10.5984-7.5776-15.9232-10.9568-1.8432-0.9728-3.8912-2.2528-6.2464-3.7888A310.3232 310.3232 0 0 0 512 165.1712a310.3232 310.3232 0 0 0-129.5872 42.3936c-2.3552 1.536-4.4032 2.816-6.2464 3.7888-5.12 3.3792-10.6496 7.0656-15.9232 10.9568-3.6352 2.9184-7.3728 6.2976-11.1104 9.9328 83.456 0.8704 107.8272 73.1136 82.8416 105.6768z" fill="#F88D2B" p-id="1797"></path><path d="M568.9856 402.0224a32.4608 32.4608 0 0 0-8.2944-2.5088 103.7312 103.7312 0 0 1-10.752-4.5056 77.2096 77.2096 0 0 0-32.1536-3.4816 11.264 11.264 0 0 0-5.12 0.9728 8.0896 8.0896 0 0 0-0.768 0.6144 8.0896 8.0896 0 0 0-0.768-0.6144 11.264 11.264 0 0 0-5.12-0.9728 77.2096 77.2096 0 0 0-32.1536 3.4816 103.7312 103.7312 0 0 1-10.752 4.5056 32.4608 32.4608 0 0 0-8.2944 2.5088 18.7904 18.7904 0 0 0-6.7072 12.544 66.2016 66.2016 0 0 0 25.1904-3.7376 52.4288 52.4288 0 0 1 8.0384-3.3792 60.3136 60.3136 0 0 1 15.7696 0 28.9792 28.9792 0 0 0 14.6944-3.5328 28.9792 28.9792 0 0 0 14.6944 3.5328 60.3136 60.3136 0 0 1 15.7696 0 52.4288 52.4288 0 0 1 8.0384 3.3792 66.2016 66.2016 0 0 0 25.1904 3.7376 18.7904 18.7904 0 0 0-6.5024-12.544zM499.2 166.5536a46.3872 46.3872 0 0 0-3.328 19.6096c1.1264 23.9104-30.72 15.0016-16.128 40.6016s-2.7648 24.4736 7.2192 40.5504a27.8016 27.8016 0 0 0 50.0736 0c10.24-16.0768-7.2192-15.0016 7.2192-40.5504s-17.2544-16.6912-16.128-40.6016a46.3872 46.3872 0 0 0-3.328-19.6096c-8.0896-1.1264-12.8-1.3824-12.8-1.3824s-4.7104 0.256-12.8 1.3824zM464.1792 189.44a38.6048 38.6048 0 0 0-27.6992 7.424 90.5216 90.5216 0 0 1-6.8096 6.5024 35.84 35.84 0 0 1-18.3296 4.352c-12.8512 1.0752-26.2144 5.12-34.816 14.4896 6.6048 3.9936 15.0016 0.8704 22.5792-0.512 15.7184-2.9184 31.8976 1.9968 47.872 1.1264a65.3824 65.3824 0 0 0 16.0256-2.816 10.24 10.24 0 0 0 4.608-2.5088 9.9328 9.9328 0 0 0 1.792-5.9392L471.04 192a15.36 15.36 0 0 0-13.2608-2.7136M559.8208 189.44a38.6048 38.6048 0 0 1 27.6992 7.424 90.5216 90.5216 0 0 0 6.8096 6.5024 35.84 35.84 0 0 0 18.3296 4.352c12.8512 1.0752 26.2144 5.12 34.816 14.4896-6.6048 3.9936-15.0016 0.8704-22.5792-0.512-15.7184-2.9184-31.8976 1.9968-47.872 1.1264a65.3824 65.3824 0 0 1-16.0256-2.816 10.24 10.24 0 0 1-4.608-2.5088 9.9328 9.9328 0 0 1-1.792-5.9392L552.96 192a15.36 15.36 0 0 1 13.2608-2.7136M437.0432 250.88a35.328 35.328 0 0 1-7.9872 3.6864 25.6 25.6 0 0 1-6.8608 0.512 63.8464 63.8464 0 0 0-16.8448 0.5632 70.1952 70.1952 0 0 0-12.3392 5.12c-4.608 2.1504-9.472 3.84-14.1312 6.0416a69.2224 69.2224 0 0 0-30.3104 28.0576 7.9872 7.9872 0 0 0 6.912-1.1264 40.96 40.96 0 0 0 5.4784-5.12 60.6208 60.6208 0 0 1 34.5088-14.0288c12.544-1.5872 25.2928-1.3312 37.7344-3.4304a104.1408 104.1408 0 0 1 18.5344-2.56 71.68 71.68 0 0 0 9.9328 0 16.0256 16.0256 0 0 0 13.312-9.1136c1.4848-5.12-5.12-9.3184-8.4992-12.3904-8.3456-6.4512-21.0432-0.512-29.44 3.7888zM586.9568 250.88a35.328 35.328 0 0 0 7.9872 3.6864 25.6 25.6 0 0 0 6.8608 0.512 63.8464 63.8464 0 0 1 16.8448 0.5632 70.1952 70.1952 0 0 1 12.3392 5.12c4.608 2.1504 9.472 3.84 14.1312 6.0416a69.2224 69.2224 0 0 1 30.3104 28.0576 7.9872 7.9872 0 0 1-6.912-1.1264 40.96 40.96 0 0 1-5.4784-5.12 60.6208 60.6208 0 0 0-34.5088-14.0288c-12.544-1.5872-25.2928-1.3312-37.7344-3.4304a104.1408 104.1408 0 0 0-18.5344-2.56 71.68 71.68 0 0 1-9.9328 0 16.0256 16.0256 0 0 1-13.312-9.1136c-1.4848-5.12 5.12-9.3184 8.4992-12.3904 8.3456-6.4512 21.0432-0.512 29.44 3.7888zM408.1664 310.8864c-5.8368 2.8672-12.032 5.12-17.8688 8.0896a80.7936 80.7936 0 0 0-41.6256 54.4768c-1.1776 5.7856-1.2288 12.9024 3.584 16.2304a4.1984 4.1984 0 0 0 1.9968 0.768 4.4032 4.4032 0 0 0 2.0992-0.512A21.1968 21.1968 0 0 0 366.2848 378.88c2.048-4.7104 3.1232-9.7792 5.12-14.592A56.32 56.32 0 0 1 399.7696 332.8c4.5056-2.0992 9.216-3.584 13.6192-5.7856a47.5136 47.5136 0 0 0 14.2848-10.752 32.8704 32.8704 0 0 1 5.6832-5.632 30.4128 30.4128 0 0 1 6.2464-2.9696c2.6112-0.9728 17.8688-6.4 17.92-9.5232s-7.5264-1.5872-9.2672-1.4848c-15.4624 1.0752-26.5216 7.4752-40.0896 14.2336zM615.8336 310.8864c5.8368 2.8672 12.032 5.12 17.8688 8.0896a80.7936 80.7936 0 0 1 41.6256 54.4768c1.1776 5.7856 1.2288 12.9024-3.584 16.2304a4.1984 4.1984 0 0 1-1.9968 0.768 4.4032 4.4032 0 0 1-2.0992-0.512 21.1968 21.1968 0 0 1-9.9328-11.3152c-2.048-4.7104-3.1232-9.7792-5.12-14.592a56.32 56.32 0 0 0-28.3648-31.232c-4.5056-2.0992-9.216-3.584-13.6192-5.7856a47.5136 47.5136 0 0 1-14.2848-10.752 32.8704 32.8704 0 0 0-5.6832-5.632 30.4128 30.4128 0 0 0-6.2464-2.9696c-2.6112-0.9728-17.8688-6.4-17.92-9.5232s7.5264-1.5872 9.2672-1.4848c15.4624 1.0752 26.5216 7.4752 40.0896 14.2336zM421.9392 371.968a176.1792 176.1792 0 0 0-34.816 34.4576c-3.2768 3.9424-6.6048 9.6256-3.5328 13.7728a9.0112 9.0112 0 0 0 7.1168 2.9696 27.8016 27.8016 0 0 0 21.0432-12.3904c5.12-6.656 9.0112-14.3872 14.6944-20.48 11.9808-12.9536 30.2592-17.3056 46.4384-24.2688 6.3488-2.7648 5.4272-7.1168-1.0752-7.0656-4.7104 0-9.3696-0.6656-14.1312-0.3072a72.4992 72.4992 0 0 0-35.7376 13.312zM602.0608 371.968a176.1792 176.1792 0 0 1 34.816 34.4576c3.2768 3.9424 6.6048 9.6256 3.5328 13.7728a9.0112 9.0112 0 0 1-7.1168 2.9696 27.8016 27.8016 0 0 1-21.0432-12.3904c-5.12-6.656-9.0112-14.3872-14.6944-20.48-11.9808-12.9536-30.2592-17.3056-46.4384-24.2688-6.3488-2.7648-5.4272-7.1168 1.0752-7.0656 4.7104 0 9.3696-0.6656 14.1312-0.3072a72.4992 72.4992 0 0 1 35.7376 13.312zM546.8672 331.0592c-2.6624 0.512-5.12 1.4848-7.7312 2.2016a49.9712 49.9712 0 0 1-23.6544 1.1776c-4.5568-0.8192-8.9088-2.304-13.4144-3.1744-20.1216-3.7888-45.7216 16.384-61.0304 2.816-4.3008-3.7888 3.3792-11.008 8.704-13.2096a76.8 76.8 0 0 1 16.8448-2.9696 47.0528 47.0528 0 0 0 15.872-5.632 64.8704 64.8704 0 0 1 8.3968-4.7104 29.9008 29.9008 0 0 1 12.5952-1.5872 104.7552 104.7552 0 0 1 34.9696 9.2672 56.9856 56.9856 0 0 0 17.664 5.4272 51.968 51.968 0 0 1 13.2608 0.768 26.624 26.624 0 0 1 11.2128 8.9088c2.4576 2.816 4.1472 6.7584 0.512 9.6256s-6.0928 0-9.0112-1.5872c-7.6288-4.6592-15.9232-9.0112-25.1904-7.3216zM316.928 512c-36.4544-12.5952-48.8448-48.1792-35.84-93.3888a126.8736 126.8736 0 0 1 9.1648-23.296c6.2976-31.488-5.12-26.2144-6.4512-54.272s-6.656-55.9104-24.5248-58.0096 17.6128 61.9008-5.9904 119.9104-0.6144 128 36.608 124.6208 79.4624 12.2368 79.4624 12.2368l-1.28-2.2528A225.28 225.28 0 0 0 316.928 512zM707.072 512c36.4544-12.5952 48.8448-48.1792 35.84-93.3888a126.8736 126.8736 0 0 0-9.1648-23.296c-6.2976-31.488 5.12-26.2144 6.4512-54.272s6.656-55.9104 24.5248-58.0096-17.6128 61.9008 5.9904 119.9104 0.6144 128-36.608 124.6208-79.4624 12.2368-79.4624 12.2368l1.28-2.2528a225.28 225.28 0 0 1 51.1488-25.5488zM310.9888 634.368c5.12 7.424 19.5584 5.12 42.0864 18.4832 30.1568 17.8176 47.7184 30.4128 44.032 21.248s-25.2416-16.7936-38.8096-33.792a50.688 50.688 0 0 0-34.816-17.664 84.8896 84.8896 0 0 0-12.4928 11.7248zM333.9264 670.72a50.432 50.432 0 0 0-34.816-11.8784 39.7312 39.7312 0 0 0 4.8128 25.0368 126.9248 126.9248 0 0 0 18.2784-0.256c25.9584-2.6624 80.0768 21.9136 84.2752 13.056S353.28 688.4352 333.9264 670.72zM391.6288 712.9088a84.992 84.992 0 0 0-37.376-6.2976c-13.8752 0.4608-31.4368-9.472-45.7216-16.0768 2.9696 4.3008 6.2464 9.3696 10.24 15.6672a91.2896 91.2896 0 0 0 27.1872 4.864c18.4832-1.1264 64 11.1104 45.6704 1.8432zM713.0112 634.368c-5.12 7.424-19.5584 5.12-42.0864 18.4832-30.1568 17.8176-47.7184 30.4128-44.032 21.248s25.2416-16.7936 38.8096-33.792a50.688 50.688 0 0 1 34.816-17.664 84.8896 84.8896 0 0 1 12.4928 11.7248zM690.0736 670.72a50.432 50.432 0 0 1 34.816-11.8784 39.7312 39.7312 0 0 1-4.8128 25.0368 126.9248 126.9248 0 0 1-18.2784-0.256c-25.9584-2.6624-80.0768 21.9136-84.2752 13.056s53.1968-8.2432 72.5504-25.9584zM632.3712 712.9088a84.992 84.992 0 0 1 37.376-6.2976c13.8752 0.4608 31.4368-9.472 45.7216-16.0768-2.9696 4.3008-6.2464 9.3696-10.24 15.6672a91.2896 91.2896 0 0 1-27.1872 4.864c-18.4832-1.1264-64 11.1104-45.6704 1.8432zM297.5232 554.3424c-3.6864 0.9216-7.8336 2.6112-8.8064 6.2464a12.8 12.8 0 0 0 1.3824 7.424 49.5616 49.5616 0 0 1 2.304 26.3168 24.1152 24.1152 0 0 0-0.5632 13.568 9.5744 9.5744 0 0 0 7.5776 5.888 13.8752 13.8752 0 0 0 10.8544-4.5056c2.8672-2.8672 5.12-6.4 7.8336-9.3696a30.72 30.72 0 0 1 12.4928-8.1408c3.3792-1.2288 8.8064-0.512 11.776-2.304 5.12-3.0208 1.2288-6.5024-2.0992-9.9328-5.5808-5.7856-12.2368-10.24-18.0736-15.9744-8.1408-7.8336-12.9024-12.2368-24.6784-9.216zM726.4768 554.3424c3.6864 0.9216 7.8336 2.6112 8.8064 6.2464a12.8 12.8 0 0 1-1.3824 7.424 49.5616 49.5616 0 0 0-2.304 26.3168 24.1152 24.1152 0 0 1 0.5632 13.568 9.5744 9.5744 0 0 1-7.5776 5.888 13.8752 13.8752 0 0 1-10.8544-4.6592c-2.8672-2.8672-5.12-6.4-7.8336-9.3696a30.72 30.72 0 0 0-12.4928-8.1408c-3.3792-1.2288-8.8064-0.512-11.776-2.304-5.12-3.0208-1.2288-6.5024 2.0992-9.9328 5.5808-5.7856 12.2368-10.24 18.0736-15.9744 8.1408-7.68 12.9024-12.0832 24.6784-9.0624zM229.1712 336.9472a26.112 26.112 0 0 0-17.408 0.8192 69.7344 69.7344 0 0 0-15.36 8.704 22.7328 22.7328 0 0 0-5.9392 5.12 20.7872 20.7872 0 0 0-2.048 14.4384c0.6144 5.12 2.4576 11.0592 7.3728 12.544s9.8304-2.56 14.9504-3.4304a119.3984 119.3984 0 0 1 12.8 0.512 16.0768 16.0768 0 0 0 12.288-6.9632 17.7664 17.7664 0 0 0 2.1504-13.9264c14.7968-5.7856 0.5632-14.6432-8.8064-17.8176zM794.8288 336.9472a26.112 26.112 0 0 1 17.408 0.8192 69.7344 69.7344 0 0 1 15.36 8.704 22.7328 22.7328 0 0 1 5.9392 5.12 20.7872 20.7872 0 0 1 2.048 14.4384c-0.6144 5.12-2.4576 11.0592-7.3728 12.544s-9.8304-2.56-14.9504-3.4304a119.3984 119.3984 0 0 0-12.8 0.512 16.0768 16.0768 0 0 1-12.288-6.9632 17.7664 17.7664 0 0 1-2.1504-13.9264c-14.7968-5.7856-0.5632-14.6432 8.8064-17.8176zM236.288 597.8624c-40.96-56.9856-47.0016-137.0112-37.6832-192.5632s-48.0256 38.6048-35.84 97.28 42.24 51.8656 45.568 120.2688 27.904 83.5584 45.1072 93.7472 31.6928 18.5856 9.4208-17.8176-19.968-93.1328 0-48.64c13.6704 30.3104 23.6032 30.72 27.0336 16.8448a830.5152 830.5152 0 0 1-53.6064-69.12zM787.1488 597.8624c40.96-56.9856 47.0528-137.0112 37.7344-192.5632s48.0256 38.6048 35.84 97.28-42.24 51.8656-45.568 120.2688-27.904 83.5584-45.1072 93.7472-31.6928 18.5856-9.4208-17.8176 19.968-93.1328 0-48.64c-13.6704 30.3104-23.6544 30.72-27.0336 16.8448a834.56 834.56 0 0 0 53.5552-69.12z" fill="#101820" p-id="1798"></path><path d="M329.4208 723.9168c-30.2592-51.2-31.5904-46.08-58.624-80.0256l-5.12 0.4608 22.2208 27.648s14.4384 15.0016 23.0912 53.1456 18.9952 56.32 43.264 56.32 23.808 17.408 37.4272-8.4992a107.8272 107.8272 0 0 1-62.2592-49.0496zM694.5792 723.9168c30.2592-51.2 31.5904-46.08 58.624-80.0256l5.12 0.4608-22.2208 27.648s-14.4384 15.0016-23.0912 53.1456-18.9952 56.32-43.264 56.32-23.808 17.408-37.4272-8.4992a107.8272 107.8272 0 0 0 62.2592-49.0496zM478.6176 861.184c-10.9056-11.776-65.3824-23.6032-84.9408-27.5456a92.16 92.16 0 0 0 11.8272 19.712 129.3312 129.3312 0 0 0 22.1696 22.3744 280.9344 280.9344 0 0 0 32.0512 2.1504c22.784-0.5632 56.32 11.6736 77.312 0s37.7856-0.5632 40.6016-16.6912-85.6576 14.336-99.0208 0zM637.0304 793.2416a103.5776 103.5776 0 0 1-13.1072 5.7344 99.7376 99.7376 0 0 0-23.7568 7.936c-4.6592 2.304-9.0624 5.12-13.9264 7.168-7.5264 2.9696-15.9232 3.4304-23.2448 6.8096-5.12 2.4064-9.8304 6.2464-15.36 8.2944-9.5744 3.6352-20.48 1.3312-30.3104 4.8128a51.8144 51.8144 0 0 0-11.3664 6.4c-1.8432 1.2288-3.9424 3.0208-3.5328 5.12a22.7328 22.7328 0 0 0 12.1856 3.2256c5.376 0.3584 10.752 0.5632 16.128 0.5632a35.84 35.84 0 0 0 8.7552-0.768 34.8672 34.8672 0 0 0 9.5232-4.608c8.96-5.5808 17.8176-11.9808 28.1088-14.1824s20.224-0.4608 29.184-4.6592a23.6544 23.6544 0 0 1 10.24-3.7888 19.5584 19.5584 0 0 1 4.5056 0.9216 32.6144 32.6144 0 0 0 13.3632 0.4096 81.3568 81.3568 0 0 0 2.6112-29.3888zM676.4032 232.192c25.344 21.0944 43.9296 38.1952 58.624 52.4288 9.5232-30.3616-24.0128-30.72-41.5744-50.0736s-8.4992-18.3808-39.5264-30.0544c-26.624-10.24-47.4624-15.7696-52.8896-17.2032a287.6416 287.6416 0 0 1 75.3664 44.9024zM288.5632 284.9792c14.7968-14.2848 33.4848-31.488 59.0336-52.7872a287.488 287.488 0 0 1 76.288-45.2608 563.8656 563.8656 0 0 0-54.3232 17.5616c-31.0272 11.6736-21.8624 10.5984-39.5264 30.0544s-51.2 19.712-41.472 50.432z" fill="#101820" p-id="1799"></path><path d="M664.1664 192a46.5408 46.5408 0 0 0 10.24-9.9328c5.4272-7.2192 12.288-22.8864 24.9856-40.192-41.5232-30.4128-92.16-27.9552-125.2352-14.2336-19.712 8.2432-46.08 15.8208-62.1056 15.8208s-42.3936-7.5776-62.1056-15.8208c-32.9216-13.7216-83.712-16.1792-125.2352 14.2336 12.6976 17.3056 19.5584 32.9728 24.9856 40.192a46.5408 46.5408 0 0 0 10.24 9.9328c61.44-28.8768 152.1664-26.8288 152.1664-26.8288s90.624-2.048 152.1664 26.8288z" fill="#F88D2B" p-id="1800"></path><path d="M449.8944 127.6416c-32.9216-13.7216-83.712-16.1792-125.2352 14.2336a347.7504 347.7504 0 0 1 21.6064 35.072c22.3232-13.5168 52.224-26.368 80.4864-22.016C481.5872 163.4304 512 143.36 512 143.36c-16.0256 0-42.3936-7.4752-62.1056-15.7184z" fill="#FEAA61" p-id="1801"></path><path d="M573.44 127.6416c32.8704-13.7216 83.712-16.1792 125.184 14.2336a367.9232 367.9232 0 0 0-21.6064 35.072c-22.3232-13.5168-52.1728-26.368-80.4352-22.016C541.9008 163.4304 511.488 143.36 511.488 143.36c15.872 0 42.3936-7.4752 61.952-15.7184z" fill="#FEAA61" p-id="1802"></path><path d="M838.0416 686.08a77.6192 77.6192 0 0 1-8.8064 7.3216c-40.96 29.0816-46.08 99.584-116.9408 130.7136-4.2496 3.328-54.2208 41.8816-79.9232 42.4448-26.7264 0.6144-4.1984 36.352-119.808 36.5568h-0.9728c-116.2752 0-93.5936-35.84-120.4224-36.5568S310.9888 824.32 310.9888 824.32C240.896 792.7296 235.52 722.5856 194.56 693.6064a77.6192 77.6192 0 0 1-8.6016-7.5264s-26.9312 92.16 0 151.9616a405.4528 405.4528 0 0 1 17.5616 45.1584c1.9968 11.52 4.1472 23.0912 6.5536 34.6624A269.1584 269.1584 0 0 0 341.8624 952.32h340.2752a269.1584 269.1584 0 0 0 131.7888-34.304c2.4064-11.5712 4.5568-23.1424 6.5536-34.6624a405.4528 405.4528 0 0 1 17.5616-45.1584c26.9312-59.5968 0-152.1152 0-152.1152z" fill="#F88D2B" p-id="1803"></path><path d="M194.56 853.3504l-1.3312 2.304c4.4032 10.8544 7.68 20.0704 10.24 27.7504 1.9968 11.52 4.1472 23.0912 6.5536 34.6624a274.2272 274.2272 0 0 0 40.3968 18.3808C217.0368 872.3456 194.56 853.3504 194.56 853.3504zM506.0608 903.2704a383.488 383.488 0 0 1 15.0528 49.1008h27.1872a326.144 326.144 0 0 0-4.8128-50.1248c-9.0624 0.6656-19.2512 1.0752-30.72 1.0752h-6.5024z" fill="#D65F00" p-id="1804"></path><path d="M848.8448 747.1616a350.1568 350.1568 0 0 0-10.8032-61.0816 77.6192 77.6192 0 0 1-8.8064 7.3216c-40.96 29.0816-46.08 99.584-116.9408 130.7136-4.2496 3.328-54.2208 41.8816-79.9232 42.4448-26.7264 0.6144-4.1984 36.352-119.808 36.5568h-0.9728c-116.2752 0-93.5936-35.84-120.4224-36.5568S310.9888 824.32 310.9888 824.32C240.896 792.7296 235.52 722.5856 194.56 693.6064a77.6192 77.6192 0 0 1-8.6016-7.5264 350.0032 350.0032 0 0 0-11.008 63.1296c65.1264 113.152 180.4288 104.704 222.6176 133.5296s106.1376 27.5456 113.664 27.2384 70.9632 1.9456 113.7152-27.2384 159.0272-20.0192 223.8976-135.5776z" fill="#EC7700" p-id="1805"></path><path d="M190.5152 690.3296c-1.536-1.28-3.072-2.6112-4.5568-4.0448 0 0-26.9312 92.16 0 151.9616 2.7648 6.144 5.12 11.776 7.3216 17.1008 0.7168 0 1.2288-0.768 1.4848-1.9968 3.84-18.2784-2.304-32.9216-10.24-75.4688-5.7856-28.928 1.0752-66.2016 5.9904-87.552zM833.4848 690.3296c1.536-1.28 3.072-2.6112 4.5568-4.0448 0 0 26.9312 92.16 0 151.9616-2.7648 6.144-5.12 11.776-7.3216 17.1008-0.7168 0-1.2288-0.768-1.4848-1.9968-3.84-18.2784 2.304-32.9216 10.24-75.4688 5.7856-28.928-1.0752-66.2016-5.9904-87.552z" fill="#FFD5BD" p-id="1806"></path><path d="M829.1328 853.3504l1.3824 2.304c-4.4544 10.8544-7.7312 20.0704-10.24 27.7504-1.9968 11.52-4.1472 23.0912-6.5536 34.6624a274.2272 274.2272 0 0 1-40.3968 18.3808c33.536-64.1024 55.808-83.0976 55.808-83.0976z" fill="#D65F00" p-id="1807"></path><path d="M317.1328 883.7632a34.56 34.56 0 0 1 33.8944 5.12 113.152 113.152 0 0 0 11.264 11.9296c5.5808 3.8912 12.8 4.1984 19.3536 5.9904s13.4144 6.6048 13.3632 13.4144a7.2704 7.2704 0 0 1-1.4848 4.4544 10.5984 10.5984 0 0 1-6.4 2.9184 131.328 131.328 0 0 1-46.6944 0.9728 63.7952 63.7952 0 0 0-13.8752-1.3824 143.8208 143.8208 0 0 0-16.5888 3.7888 40.1408 40.1408 0 0 1-24.32-2.816c-4.1984-1.8944-8.5504-5.12-8.6016-9.9328-0.1536-14.4896 29.0816-30.8224 40.0896-34.4576zM250.5216 808.0896c-15.36-10.24-32.0512-18.8416-41.3696-34.3552a19.968 19.968 0 0 0-5.9392-7.4752 11.3664 11.3664 0 0 0-14.6432 5.376 33.4336 33.4336 0 0 0-2.6624 16.9984 30.72 30.72 0 0 0 5.12 19.456 37.888 37.888 0 0 0 10.5984 7.6288 76.8 76.8 0 0 1 17.5104 14.5408c5.7856 6.5536 11.008 14.5408 19.3536 17.2544a78.1824 78.1824 0 0 0 11.52 1.792c7.5264 1.1264 58.0096 29.0304 51.6096 7.7312-2.56-8.4992-13.824-16.9984-19.8144-23.1936a191.8976 191.8976 0 0 0-31.2832-25.7536zM680.2432 864c-7.8848 5.632-13.1584 14.2848-20.8896 20.1728-14.5408 11.1104-34.6624 10.6496-51.712 17.3568-6.912 2.7136-21.1456 9.1136-23.1936 17.2032-2.4576 9.6256 14.0288 13.6704 21.1456 15.9232a41.3184 41.3184 0 0 0 29.184-1.6896c16.0768-7.3216 26.5728-24.5248 43.52-29.5936 4.096-1.2288 8.4992-1.6384 12.544-3.1744a31.0784 31.0784 0 0 0 16.64-17.152 64.8192 64.8192 0 0 0 4.352-24.0128 36.4544 36.4544 0 0 0-31.5904 4.9664zM766.5152 813.312a228.864 228.864 0 0 1-21.4016 63.232 57.8048 57.8048 0 0 1-9.5744 14.3872 83.8144 83.8144 0 0 1-17.3056 12.0832 167.168 167.168 0 0 0-33.6384 26.9312c4.5568 5.12 13.1072 5.12 19.3024 1.792a205.568 205.568 0 0 0 17.0496-12.0832c10.24-6.5024 22.9888-8.0896 33.2288-14.6432 17.0496-10.9568 23.1424-32.768 26.4192-52.7872s5.7344-41.5744 19.0464-56.8832c7.1168-8.1408 16.7936-13.7728 24.1152-21.76 5.4272-5.9392 14.2848-22.016 6.4512-29.4912-11.0592-10.5984-22.3232 6.9632-27.904 13.824s-13.8752 11.9296-20.48 18.432c-10.752 9.984-12.8512 23.3472-15.3088 36.9664z" fill="#101820" p-id="1808"></path></svg>