<?xml version="1.0" standalone="no"?><!DOCTYPE svg PUBLIC "-//W3C//DTD SVG 1.1//EN" "http://www.w3.org/Graphics/SVG/1.1/DTD/svg11.dtd"><svg t="1586851358831" class="icon" viewBox="0 0 1075 1024" version="1.1" xmlns="http://www.w3.org/2000/svg" p-id="44743" xmlns:xlink="http://www.w3.org/1999/xlink" width="20.99609375" height="20"><defs><style type="text/css"></style></defs><path d="M983.04 5.12L51.2 481.28c-40.96 15.36-25.6 61.44-10.24 66.56l220.16 138.24c15.36 10.24 35.84 10.24 61.44-10.24l532.48-450.56 15.36 10.24L384 716.8c-10.24 10.24-10.24 15.36-10.24 25.6v204.8c0 15.36 10.24 35.84 25.6 40.96 15.36 5.12 35.84 0 40.96-10.24l112.64-112.64 220.16 143.36c25.6 15.36 66.56 15.36 76.8-25.6L1044.48 51.2c15.36-35.84-15.36-61.44-61.44-46.08" fill="#ffffff" p-id="44744"></path></svg>