<?xml version="1.0" standalone="no"?><!DOCTYPE svg PUBLIC "-//W3C//DTD SVG 1.1//EN" "http://www.w3.org/Graphics/SVG/1.1/DTD/svg11.dtd"><svg t="1587453218213" class="icon" viewBox="0 0 1024 1024" version="1.1" xmlns="http://www.w3.org/2000/svg" p-id="1766" xmlns:xlink="http://www.w3.org/1999/xlink" width="10" height="10"><defs><style type="text/css"></style></defs><path d="M512 0C229.1 0 0 229.1 0 512c0 282.6 229.1 512 512 512s512-229.4 512-512C1024 229.1 794.9 0 512 0z m293.1 369L451.2 722.6h-0.3c-18.6 18.9-48.6 18.9-67.5 0h-0.4L219.2 558.7c-18.9-18.9-18.9-49.3 0-67.8 9.3-9.6 21.4-14.1 33.9-14.1 12.2 0 24.3 4.5 33.9 14.1l130.2 130.2 320-320c18.6-18.9 49-18.9 67.8 0 9.3 9.3 13.8 21.8 13.8 33.9 0.1 12.5-4.4 24.7-13.7 34z" fill="#1dd1a1" p-id="1767"></path></svg>