<?xml version="1.0" standalone="no"?><!DOCTYPE svg PUBLIC "-//W3C//DTD SVG 1.1//EN" "http://www.w3.org/Graphics/SVG/1.1/DTD/svg11.dtd"><svg t="1586857485490" class="icon" viewBox="0 0 1024 1024" version="1.1" xmlns="http://www.w3.org/2000/svg" p-id="2814" xmlns:xlink="http://www.w3.org/1999/xlink" width="20" height="20"><defs><style type="text/css"></style></defs><path d="M512 512m-512 0a512 512 0 1 0 1024 0 512 512 0 1 0-1024 0Z" fill="#ddd" p-id="2815"></path><path d="M469.835294 722.823529c-18.070588 0-30.117647-6.023529-42.164706-18.070588L252.988235 530.070588c-24.094118-24.094118-24.094118-60.235294 0-84.329412s60.235294-24.094118 84.329412 0l132.517647 132.517648 240.941177-240.941177c24.094118-24.094118 60.235294-24.094118 84.329411 0s24.094118 60.235294 0 84.329412l-283.105882 283.105882c-12.047059 12.047059-30.117647 18.070588-42.164706 18.070588z" fill="#FFFFFF" p-id="2816"></path></svg>